<svg width="156" height="46" viewBox="0 0 156 46" fill="none" xmlns="http://www.w3.org/2000/svg">
<path d="M154.621 40.3102C154.621 42.7083 152.647 44.6508 150.207 44.6508H5.76237C3.3229 44.6508 1.34277 42.7083 1.34277 40.3102V5.69527C1.34277 3.29831 3.3229 1.349 5.76237 1.349H150.206C152.647 1.349 154.619 3.29831 154.619 5.69527L154.621 40.3102Z" fill="black"/>
<path d="M149.741 1.40136C152.399 1.40136 154.562 3.52057 154.562 6.12494V39.8749C154.562 42.4793 152.399 44.5985 149.741 44.5985H6.22267C3.56471 44.5985 1.40189 42.4793 1.40189 39.8749V6.12494C1.40189 3.52057 3.56471 1.40136 6.22267 1.40136H149.741ZM149.741 0.499954H6.22267C3.0667 0.499954 0.481934 3.03261 0.481934 6.12494V39.8749C0.481934 42.9672 3.0667 45.4999 6.22267 45.4999H149.741C152.897 45.4999 155.482 42.9672 155.482 39.8749V6.12494C155.482 3.03261 152.897 0.499954 149.741 0.499954Z" fill="#A6A6A6"/>
<path d="M35.0729 22.757C35.0396 19.1311 38.1028 17.3671 38.2429 17.285C36.5081 14.8066 33.8191 14.468 32.8742 14.441C30.6158 14.2081 28.4251 15.7651 27.2746 15.7651C26.1012 15.7651 24.3296 14.4635 22.4203 14.5018C19.9632 14.5389 17.6646 15.9327 16.404 18.0972C13.8023 22.5106 15.7426 28.9962 18.2353 32.5636C19.4822 34.3107 20.9392 36.2615 22.8462 36.1928C24.712 36.1175 25.4089 35.0273 27.6604 35.0273C29.8913 35.0273 30.5457 36.1928 32.4907 36.149C34.493 36.1175 35.7537 34.394 36.957 32.6311C38.3979 30.6286 38.9766 28.6565 38.9995 28.5552C38.9525 28.5395 35.1108 27.1029 35.0729 22.757Z" fill="white"/>
<path d="M31.3988 12.0943C32.4023 10.8646 33.0889 9.19176 32.8983 7.49414C31.4459 7.55714 29.6295 8.47851 28.5835 9.68114C27.6581 10.7409 26.8315 12.4779 27.045 14.1114C28.6765 14.2306 30.3517 13.3048 31.3988 12.0943Z" fill="white"/>
<path d="M62.0742 35.9418H59.4668L58.0385 31.5442H53.0739L51.7134 35.9418H49.1748L54.0935 20.9703H57.1315L62.0742 35.9418ZM57.608 29.6992L56.3163 25.7898C56.1797 25.3905 55.9236 24.45 55.5459 22.9695H55.4999C55.3495 23.6062 55.1073 24.5467 54.7743 25.7898L53.5056 29.6992H57.608Z" fill="white"/>
<path d="M74.7233 30.4115C74.7233 32.2475 74.217 33.6988 73.2043 34.7642C72.2973 35.7125 71.1709 36.1862 69.8265 36.1862C68.3752 36.1862 67.3327 35.6754 66.6978 34.6539H66.6518V40.3408H64.204V28.7004C64.204 27.5462 64.173 26.3615 64.1133 25.1466H66.2661L66.4027 26.8577H66.4486C67.2649 25.5684 68.5038 24.9249 70.1663 24.9249C71.466 24.9249 72.551 25.4278 73.419 26.4347C74.2893 27.4427 74.7233 28.7679 74.7233 30.4115ZM72.2295 30.4993C72.2295 29.4485 71.9884 28.5823 71.5039 27.9005C70.9746 27.1895 70.2639 26.834 69.3729 26.834C68.769 26.834 68.2202 27.032 67.7299 27.4224C67.2385 27.8162 66.9171 28.3303 66.7666 28.967C66.6909 29.264 66.653 29.507 66.653 29.6983V31.4983C66.653 32.2835 66.8987 32.9462 67.3901 33.4873C67.8815 34.0284 68.5199 34.2984 69.3052 34.2984C70.2272 34.2984 70.9448 33.9497 71.458 33.2544C71.9724 32.558 72.2295 31.64 72.2295 30.4993Z" fill="white"/>
<path d="M87.3955 30.4115C87.3955 32.2475 86.8892 33.6988 85.8754 34.7642C84.9695 35.7125 83.8431 36.1862 82.4987 36.1862C81.0474 36.1862 80.0049 35.6754 79.3711 34.6539H79.3252V40.3408H76.8773V28.7004C76.8773 27.5462 76.8463 26.3615 76.7866 25.1466H78.9394L79.076 26.8577H79.122C79.9371 25.5684 81.176 24.9249 82.8397 24.9249C84.1382 24.9249 85.2232 25.4278 86.0935 26.4347C86.9604 27.4427 87.3955 28.7679 87.3955 30.4115ZM84.9017 30.4993C84.9017 29.4485 84.6595 28.5823 84.175 27.9005C83.6457 27.1895 82.9373 26.834 82.0451 26.834C81.4401 26.834 80.8924 27.032 80.401 27.4224C79.9096 27.8162 79.5892 28.3303 79.4388 28.967C79.3642 29.264 79.3252 29.507 79.3252 29.6983V31.4983C79.3252 32.2835 79.5709 32.9462 80.06 33.4873C80.5514 34.0273 81.1898 34.2984 81.9774 34.2984C82.8994 34.2984 83.617 33.9497 84.1302 33.2544C84.6446 32.558 84.9017 31.64 84.9017 30.4993Z" fill="white"/>
<path d="M101.564 31.7435C101.564 33.017 101.113 34.0531 100.207 34.853C99.2115 35.7271 97.8257 36.1636 96.0449 36.1636C94.4008 36.1636 93.0827 35.8531 92.085 35.231L92.6521 33.2318C93.7268 33.8686 94.906 34.1881 96.1907 34.1881C97.1127 34.1881 97.8303 33.9833 98.3458 33.5761C98.859 33.1688 99.1151 32.6221 99.1151 31.9403C99.1151 31.3328 98.9038 30.821 98.4801 30.4058C98.0588 29.9907 97.355 29.6048 96.3721 29.2482C93.697 28.2706 92.3605 26.8385 92.3605 24.9552C92.3605 23.7245 92.829 22.7153 93.767 21.9301C94.7016 21.1437 95.9485 20.7511 97.5077 20.7511C98.8981 20.7511 100.053 20.9885 100.975 21.4621L100.363 23.4173C99.502 22.9583 98.5284 22.7288 97.4388 22.7288C96.5777 22.7288 95.9049 22.937 95.4226 23.351C95.015 23.7211 94.8107 24.1722 94.8107 24.7066C94.8107 25.2983 95.0437 25.7877 95.5122 26.1725C95.9198 26.528 96.6603 26.9127 97.735 27.3278C99.0496 27.8465 100.015 28.4528 100.636 29.1481C101.255 29.8411 101.564 30.7085 101.564 31.7435Z" fill="white"/>
<path d="M109.657 26.9465H106.959V32.1879C106.959 33.521 107.434 34.187 108.387 34.187C108.825 34.187 109.187 34.1499 109.474 34.0756L109.542 35.897C109.06 36.0736 108.425 36.1625 107.639 36.1625C106.672 36.1625 105.916 35.8734 105.371 35.2963C104.828 34.718 104.555 33.7483 104.555 32.3859V26.9443H102.947V25.1443H104.555V23.1677L106.959 22.4567V25.1443H109.657V26.9465Z" fill="white"/>
<path d="M121.83 30.4554C121.83 32.1148 121.345 33.4771 120.379 34.5425C119.365 35.6394 118.019 36.1861 116.342 36.1861C114.725 36.1861 113.438 35.6608 112.478 34.61C111.518 33.5593 111.039 32.2329 111.039 30.6343C111.039 28.9614 111.532 27.5911 112.523 26.5258C113.512 25.4593 114.846 24.926 116.523 24.926C118.14 24.926 119.441 25.4514 120.422 26.5033C121.362 27.5236 121.83 28.841 121.83 30.4554ZM119.29 30.533C119.29 29.5374 119.073 28.6835 118.634 27.9714C118.12 27.1096 117.387 26.6799 116.436 26.6799C115.452 26.6799 114.705 27.1108 114.191 27.9714C113.752 28.6846 113.535 29.552 113.535 30.578C113.535 31.5736 113.752 32.4275 114.191 33.1385C114.721 34.0003 115.46 34.43 116.414 34.43C117.349 34.43 118.082 33.9913 118.612 33.116C119.063 32.3904 119.29 31.5275 119.29 30.533Z" fill="white"/>
<path d="M129.788 27.2559C129.545 27.212 129.287 27.1895 129.016 27.1895C128.155 27.1895 127.489 27.5079 127.021 28.1458C126.613 28.7083 126.409 29.4193 126.409 30.2777V35.942H123.962L123.985 28.5463C123.985 27.302 123.954 26.1692 123.893 25.1477H126.025L126.115 27.2132H126.182C126.441 26.5033 126.848 25.9318 127.406 25.5032C127.952 25.1173 128.541 24.9249 129.176 24.9249C129.402 24.9249 129.606 24.9407 129.788 24.9688V27.2559Z" fill="white"/>
<path d="M140.735 30.0334C140.735 30.4632 140.707 30.8254 140.646 31.1213H133.302C133.331 32.1878 133.686 33.0034 134.368 33.5659C134.986 34.0688 135.787 34.3208 136.77 34.3208C137.857 34.3208 138.849 34.1509 139.741 33.81L140.124 35.475C139.082 35.9205 137.851 36.1421 136.431 36.1421C134.722 36.1421 133.381 35.6494 132.405 34.665C131.432 33.6806 130.944 32.3588 130.944 30.7005C130.944 29.0727 131.397 27.717 132.306 26.6359C133.256 25.4817 134.541 24.9045 136.158 24.9045C137.745 24.9045 138.948 25.4817 139.764 26.6359C140.41 27.5528 140.735 28.6868 140.735 30.0334ZM138.401 29.4113C138.417 28.7003 138.258 28.086 137.926 27.5674C137.502 26.9003 136.851 26.5673 135.975 26.5673C135.175 26.5673 134.524 26.8924 134.027 27.5449C133.619 28.0635 133.377 28.6857 133.302 29.4102H138.401V29.4113Z" fill="white"/>
<path d="M56.7986 11.76C56.7986 13.0842 56.3933 14.0809 55.5838 14.7503C54.8341 15.3679 53.7686 15.6773 52.3885 15.6773C51.7042 15.6773 51.1187 15.648 50.6284 15.5895V8.35466C51.2679 8.25341 51.9568 8.20166 52.7008 8.20166C54.0155 8.20166 55.0063 8.48178 55.6745 9.04203C56.4231 9.67541 56.7986 10.581 56.7986 11.76ZM55.5299 11.7927C55.5299 10.9343 55.2979 10.2762 54.8341 9.81716C54.3702 9.35928 53.6928 9.12978 52.8007 9.12978C52.4218 9.12978 52.0992 9.15453 51.8317 9.20628V14.7064C51.9798 14.7289 52.2508 14.739 52.6446 14.739C53.5654 14.739 54.2761 14.4882 54.7767 13.9864C55.2773 13.4847 55.5299 12.7534 55.5299 11.7927Z" fill="white"/>
<path d="M63.5246 12.9164C63.5246 13.7321 63.287 14.4003 62.8116 14.9245C62.3133 15.4634 61.6532 15.7323 60.8288 15.7323C60.0343 15.7323 59.4016 15.4747 58.9297 14.9572C58.459 14.4408 58.2236 13.7894 58.2236 13.0042C58.2236 12.1829 58.4659 11.5091 58.9527 10.9859C59.4395 10.4628 60.094 10.2007 60.9183 10.2007C61.7129 10.2007 62.3512 10.4583 62.8346 10.9747C63.2939 11.4764 63.5246 12.1244 63.5246 12.9164ZM62.2766 12.9547C62.2766 12.4653 62.1687 12.0457 61.954 11.6958C61.7014 11.2728 61.342 11.0613 60.8747 11.0613C60.3913 11.0613 60.0239 11.2728 59.7713 11.6958C59.5555 12.0457 59.4487 12.4721 59.4487 12.9761C59.4487 13.4654 59.5566 13.8851 59.7713 14.2349C60.032 14.6579 60.3948 14.8694 60.8632 14.8694C61.3225 14.8694 61.683 14.6546 61.9425 14.2237C62.1652 13.8671 62.2766 13.4441 62.2766 12.9547Z" fill="white"/>
<path d="M72.5459 10.3087L70.8524 15.612H69.7502L69.0487 13.3091C68.8707 12.7342 68.7261 12.1627 68.6135 11.5957H68.5917C68.4872 12.1785 68.3426 12.7488 68.1566 13.3091L67.4114 15.612H66.2966L64.7041 10.3087H65.9407L66.5526 12.8298C66.7007 13.4261 66.8224 13.9942 66.92 14.532H66.9418C67.0314 14.0887 67.1795 13.524 67.3885 12.8411L68.1566 10.3098H69.1371L69.8731 12.7871C70.051 13.3912 70.1957 13.9728 70.3071 14.5331H70.3404C70.4219 13.9875 70.5447 13.4058 70.7078 12.7871L71.3645 10.3098H72.5459V10.3087Z" fill="white"/>
<path d="M78.7827 15.612H77.5795V12.5745C77.5795 11.6385 77.2166 11.1705 76.4887 11.1705C76.1316 11.1705 75.8435 11.2988 75.6196 11.5564C75.398 11.814 75.2855 12.1178 75.2855 12.4654V15.6109H74.0822V11.8241C74.0822 11.3584 74.0673 10.8533 74.0386 10.3065H75.096L75.1523 11.1356H75.1856C75.3256 10.878 75.5346 10.6654 75.809 10.4955C76.1351 10.2975 76.5002 10.1974 76.8997 10.1974C77.4049 10.1974 77.8252 10.3571 78.1593 10.6778C78.5749 11.0704 78.7827 11.6565 78.7827 12.435V15.612Z" fill="white"/>
<path d="M82.101 15.612H80.8989V7.87537H82.101V15.612Z" fill="white"/>
<path d="M89.1853 12.9164C89.1853 13.7321 88.9476 14.4003 88.4723 14.9245C87.974 15.4634 87.3127 15.7323 86.4894 15.7323C85.6938 15.7323 85.0611 15.4747 84.5904 14.9572C84.1196 14.4408 83.8843 13.7894 83.8843 13.0042C83.8843 12.1829 84.1265 11.5091 84.6134 10.9859C85.1002 10.4628 85.7546 10.2007 86.5778 10.2007C87.3735 10.2007 88.0107 10.4583 88.4952 10.9747C88.9545 11.4764 89.1853 12.1244 89.1853 12.9164ZM87.9361 12.9547C87.9361 12.4653 87.8282 12.0457 87.6135 11.6958C87.362 11.2728 87.0015 11.0613 86.5353 11.0613C86.0508 11.0613 85.6834 11.2728 85.432 11.6958C85.2161 12.0457 85.1094 12.4721 85.1094 12.9761C85.1094 13.4654 85.2173 13.8851 85.432 14.2349C85.6926 14.6579 86.0554 14.8694 86.5239 14.8694C86.9831 14.8694 87.3425 14.6546 87.602 14.2237C87.8259 13.8671 87.9361 13.4441 87.9361 12.9547Z" fill="white"/>
<path d="M95.0083 15.6119H93.9279L93.8383 15.001H93.805C93.4353 15.4882 92.9083 15.7323 92.224 15.7323C91.7131 15.7323 91.2998 15.5714 90.9886 15.2519C90.7062 14.9617 90.5649 14.6005 90.5649 14.1719C90.5649 13.5239 90.8405 13.0301 91.3951 12.6881C91.9485 12.3461 92.7269 12.1784 93.7292 12.1863V12.0873C93.7292 11.3887 93.3549 11.0399 92.6052 11.0399C92.0713 11.0399 91.6006 11.1716 91.1941 11.4326L90.9496 10.6586C91.4525 10.3537 92.0736 10.2007 92.8061 10.2007C94.2206 10.2007 94.9302 10.9319 94.9302 12.3944V14.3474C94.9302 14.8773 94.9566 15.2992 95.0083 15.6119ZM93.7591 13.7894V12.9716C92.4318 12.9491 91.7682 13.3057 91.7682 14.0403C91.7682 14.3171 91.844 14.524 91.999 14.6624C92.154 14.8008 92.3515 14.8694 92.5868 14.8694C92.8509 14.8694 93.0978 14.7873 93.3228 14.6242C93.549 14.4599 93.6879 14.2518 93.7396 13.9964C93.7522 13.9391 93.7591 13.8693 93.7591 13.7894Z" fill="white"/>
<path d="M101.845 15.612H100.777L100.721 14.7604H100.688C100.347 15.4084 99.7656 15.7324 98.9493 15.7324C98.2971 15.7324 97.754 15.4815 97.3235 14.9797C96.8929 14.478 96.6782 13.8266 96.6782 13.0267C96.6782 12.1684 96.9113 11.4731 97.3797 10.9421C97.8333 10.4471 98.389 10.1996 99.0503 10.1996C99.7771 10.1996 100.286 10.4392 100.575 10.9196H100.598V7.87537H101.802V14.1832C101.802 14.6996 101.816 15.1755 101.845 15.612ZM100.598 13.3755V12.4912C100.598 12.3382 100.587 12.2145 100.565 12.12C100.497 11.8365 100.351 11.598 100.13 11.4056C99.9057 11.2132 99.6358 11.1165 99.3247 11.1165C98.8758 11.1165 98.5244 11.2909 98.2661 11.6407C98.0101 11.9906 97.8803 12.4372 97.8803 12.9829C97.8803 13.5071 98.0032 13.9324 98.25 14.2597C98.5107 14.6085 98.862 14.7829 99.3017 14.7829C99.6967 14.7829 100.012 14.6377 100.252 14.3464C100.484 14.0775 100.598 13.7535 100.598 13.3755Z" fill="white"/>
<path d="M112.137 12.9164C112.137 13.7321 111.899 14.4003 111.424 14.9245C110.926 15.4634 110.267 15.7323 109.441 15.7323C108.648 15.7323 108.015 15.4747 107.542 14.9572C107.071 14.4408 106.836 13.7894 106.836 13.0042C106.836 12.1829 107.078 11.5091 107.565 10.9859C108.052 10.4628 108.706 10.2007 109.532 10.2007C110.325 10.2007 110.965 10.4583 111.447 10.9747C111.906 11.4764 112.137 12.1244 112.137 12.9164ZM110.89 12.9547C110.89 12.4653 110.782 12.0457 110.567 11.6958C110.314 11.2728 109.955 11.0613 109.487 11.0613C109.005 11.0613 108.637 11.2728 108.384 11.6958C108.168 12.0457 108.061 12.4721 108.061 12.9761C108.061 13.4654 108.169 13.8851 108.384 14.2349C108.644 14.6579 109.007 14.8694 109.476 14.8694C109.935 14.8694 110.296 14.6546 110.556 14.2237C110.778 13.8671 110.89 13.4441 110.89 12.9547Z" fill="white"/>
<path d="M118.608 15.612H117.406V12.5745C117.406 11.6385 117.043 11.1705 116.314 11.1705C115.957 11.1705 115.668 11.2988 115.446 11.5564C115.223 11.814 115.112 12.1178 115.112 12.4654V15.6109H113.907V11.8241C113.907 11.3584 113.893 10.8533 113.865 10.3065H114.921L114.977 11.1356H115.011C115.152 10.878 115.361 10.6654 115.634 10.4955C115.961 10.2975 116.325 10.1974 116.726 10.1974C117.23 10.1974 117.65 10.3571 117.984 10.6778C118.401 11.0704 118.608 11.6565 118.608 12.435V15.612Z" fill="white"/>
<path d="M126.705 11.1919H125.38V13.7682C125.38 14.4229 125.615 14.7503 126.081 14.7503C126.297 14.7503 126.476 14.7323 126.617 14.6952L126.648 15.5895C126.411 15.6773 126.098 15.7212 125.714 15.7212C125.238 15.7212 124.869 15.5794 124.601 15.2959C124.332 15.0124 124.199 14.5354 124.199 13.866V11.1919H123.408V10.3088H124.199V9.33679L125.378 8.98804V10.3077H126.703V11.1919H126.705Z" fill="white"/>
<path d="M133.074 15.612H131.87V12.597C131.87 11.6464 131.507 11.1705 130.78 11.1705C130.222 11.1705 129.841 11.4461 129.632 11.9974C129.596 12.1132 129.576 12.255 129.576 12.4215V15.6109H128.374V7.87537H129.576V11.0715H129.599C129.978 10.4899 130.521 10.1996 131.224 10.1996C131.723 10.1996 132.135 10.3594 132.462 10.68C132.87 11.0794 133.074 11.6734 133.074 12.4586V15.612Z" fill="white"/>
<path d="M139.645 12.7094C139.645 12.9209 139.629 13.0987 139.601 13.2438H135.992C136.008 13.768 136.18 14.1674 136.514 14.4442C136.82 14.6917 137.214 14.8154 137.696 14.8154C138.23 14.8154 138.717 14.7322 139.155 14.5645L139.343 15.3835C138.83 15.6018 138.226 15.7109 137.527 15.7109C136.689 15.7109 136.029 15.469 135.551 14.9853C135.071 14.5015 134.833 13.8524 134.833 13.0379C134.833 12.238 135.055 11.572 135.502 11.041C135.968 10.4741 136.598 10.1906 137.394 10.1906C138.172 10.1906 138.764 10.4741 139.163 11.041C139.486 11.491 139.645 12.0479 139.645 12.7094ZM138.497 12.4045C138.506 12.0547 138.427 11.7532 138.264 11.4989C138.055 11.1716 137.737 11.0073 137.307 11.0073C136.914 11.0073 136.594 11.167 136.349 11.4877C136.149 11.743 136.031 12.0479 135.992 12.4045H138.497Z" fill="white"/>
</svg>
