<svg width="26" height="24" viewBox="0 0 26 24" fill="none" xmlns="http://www.w3.org/2000/svg">
<path d="M13.7047 23.9994H12.2949C11.9777 23.9618 11.6593 23.9295 11.3427 23.8849C8.97077 23.5506 6.87315 22.6049 5.07804 21.0224C2.96338 19.1586 1.64642 16.8389 1.14889 14.0599C1.06841 13.607 1.05196 13.1477 0.969727 12.696C0.969727 12.2272 0.969727 11.7585 0.969727 11.2891C1.00615 10.9813 1.03669 10.6724 1.08016 10.3657C1.41146 8.00791 2.33016 5.90382 3.92202 4.12927C6.78504 0.936137 10.38 -0.404908 14.6369 0.105547C17.0306 0.392788 19.137 1.38315 20.9409 2.98031C23.0444 4.84179 24.3555 7.15676 24.8507 9.92637C24.9317 10.3787 24.9482 10.838 25.0298 11.2897V12.6966C25.0151 12.7794 24.9928 12.8616 24.9875 12.945C24.9611 13.3827 24.8994 13.815 24.8166 14.2444C24.3555 16.6351 23.2682 18.7016 21.5536 20.4292C19.7561 22.2407 17.595 23.375 15.0733 23.8208C14.6187 23.9013 14.157 23.9172 13.7041 24L13.7047 23.9994ZM10.1462 13.1659C7.37068 11.1728 7.41826 7.61904 9.20103 5.64595C11.079 3.56771 14.241 3.34156 16.2922 5.14783C17.4065 6.12938 18.0233 7.36117 18.052 8.84378C18.0873 10.6483 17.316 12.0763 15.8452 13.1659C17.141 13.6611 18.2336 14.3942 19.1393 15.3992C20.048 16.4072 20.6637 17.575 21.0155 18.899C24.3919 15.1566 24.8336 8.52717 20.1879 4.19858C15.7559 0.0697153 8.58073 0.579583 4.78257 5.28293C0.930958 10.0515 2.26378 16.0207 4.98288 18.8725C5.76178 16.1352 7.48522 14.2456 10.1462 13.1659ZM13.0667 22.592C13.4333 22.5673 13.8709 22.5585 14.3068 22.5039C16.3227 22.2519 18.112 21.4747 19.6944 20.2101C19.7773 20.1437 19.8031 20.0849 19.7872 19.9745C19.2392 16.1487 15.6631 13.5313 11.8626 14.178C8.92025 14.6785 6.66403 16.994 6.21408 19.9669C6.19587 20.0885 6.227 20.149 6.31629 20.2201C8.26999 21.7773 10.4986 22.5609 13.0667 22.5914V22.592ZM12.991 12.6226C14.9911 12.6337 16.6305 11.0131 16.6552 9.00003C16.6799 7.00755 15.0205 5.33932 13.008 5.33404C11.0061 5.32816 9.3702 6.94705 9.34377 8.9595C9.31734 10.9543 10.9674 12.6114 12.991 12.6226Z" fill="white"/>
</svg>
