<svg width="48" height="48" viewBox="0 0 48 48" fill="none" xmlns="http://www.w3.org/2000/svg">
<g clip-path="url(#clip0_7_53)">
<circle opacity="0.5" cx="24" cy="24" r="24" fill="#0F0F0F"/>
<circle opacity="0.6" cx="24" cy="24" r="20" fill="#0F0F0F"/>
<path d="M27.4777 14C27.8143 14.0258 28.1499 14.0516 28.4866 14.0796C28.7189 14.099 28.9513 14.1205 29.189 14.142V17.3226C29.0814 17.3226 28.9738 17.3226 28.877 17.3226C28.2198 17.3323 27.5605 17.3226 26.9044 17.3581C26.728 17.3469 26.5512 17.3732 26.3857 17.4351C26.2202 17.4971 26.0696 17.5933 25.9439 17.7175C25.8181 17.8417 25.7201 17.9911 25.6561 18.1559C25.5922 18.3206 25.5638 18.497 25.5727 18.6736C25.534 19.5437 25.5641 20.4182 25.5641 21.3185H29.0706L28.6103 24.8842H25.5555V34H21.8802V24.8928H18.8125V21.3325H21.8769C21.8769 21.2324 21.8769 21.1571 21.8769 21.0819C21.8769 20.1504 21.8576 19.2178 21.8952 18.2853C21.9007 17.1793 22.3175 16.115 23.0644 15.2993C23.6566 14.6855 24.4269 14.2734 25.2662 14.1215C25.4931 14.0742 25.7233 14.0398 25.9524 14H27.4777Z" fill="white"/>
</g>
<defs>
<clipPath id="clip0_7_53">
<rect width="48" height="48" fill="white"/>
</clipPath>
</defs>
</svg>
