<svg width="156" height="46" viewBox="0 0 156 46" fill="none" xmlns="http://www.w3.org/2000/svg">
<path d="M149.741 45.5001H6.22267C3.0667 45.5001 0.481934 42.9675 0.481934 39.8751V6.12519C0.481934 3.03285 3.0667 0.500202 6.22267 0.500202H149.741C152.897 0.500202 155.482 3.03285 155.482 6.12519V39.8751C155.482 42.9675 152.897 45.5001 149.741 45.5001Z" fill="black"/>
<path d="M149.741 1.40161C152.399 1.40161 154.562 3.52082 154.562 6.12519V39.8751C154.562 42.4795 152.399 44.5987 149.741 44.5987H6.22267C3.56471 44.5987 1.40189 42.4795 1.40189 39.8751V6.12519C1.40189 3.52082 3.56471 1.40161 6.22267 1.40161H149.741ZM149.741 0.500202H6.22267C3.0667 0.500202 0.481934 3.03285 0.481934 6.12519V39.8751C0.481934 42.9675 3.0667 45.5001 6.22267 45.5001H149.741C152.897 45.5001 155.482 42.9675 155.482 39.8751V6.12519C155.482 3.03285 152.897 0.500202 149.741 0.500202Z" fill="#A6A6A6"/>
<path d="M54.924 12.0244C54.924 12.9637 54.6369 13.7161 54.0715 14.2772C53.4213 14.9423 52.5746 15.277 51.5369 15.277C50.5452 15.277 49.6985 14.9367 49.0038 14.2659C48.3078 13.5853 47.9604 12.75 47.9604 11.7501C47.9604 10.7503 48.3078 9.91498 49.0038 9.23998C49.6985 8.56358 50.5452 8.22327 51.5369 8.22327C52.0306 8.22327 52.5014 8.32311 52.9506 8.50873C53.3984 8.69577 53.7629 8.94889 54.027 9.26108L53.4271 9.85451C52.9664 9.32155 52.3392 9.05858 51.5369 9.05858C50.8136 9.05858 50.1864 9.30608 49.654 9.80529C49.1273 10.3059 48.8632 10.9542 48.8632 11.7501C48.8632 12.5461 49.1273 13.2 49.654 13.7006C50.1864 14.1942 50.8136 14.4473 51.5369 14.4473C52.3048 14.4473 52.9506 14.1942 53.4601 13.695C53.7959 13.3645 53.9868 12.9089 54.037 12.3267H51.5369V11.5139H54.8723C54.9125 11.6897 54.924 11.8598 54.924 12.0244Z" fill="white" stroke="white" stroke-width="0.16" stroke-miterlimit="10"/>
<path d="M60.2158 9.20633H57.0827V11.3438H59.9072V12.1566H57.0827V14.2941H60.2158V15.1224H56.1958V8.37805H60.2158V9.20633Z" fill="white" stroke="white" stroke-width="0.16" stroke-miterlimit="10"/>
<path d="M63.9493 15.1224H63.0623V9.20633H61.1406V8.37805H65.8724V9.20633H63.9493V15.1224Z" fill="white" stroke="white" stroke-width="0.16" stroke-miterlimit="10"/>
<path d="M69.2969 15.1224V8.37805H70.1824V15.1224H69.2969Z" fill="white" stroke="white" stroke-width="0.16" stroke-miterlimit="10"/>
<path d="M74.108 15.1224H73.2282V9.20633H71.2993V8.37805H76.0369V9.20633H74.108V15.1224Z" fill="white" stroke="white" stroke-width="0.16" stroke-miterlimit="10"/>
<path d="M84.9957 14.2548C84.3169 14.9368 83.4759 15.2771 82.4727 15.2771C81.4637 15.2771 80.6227 14.9368 79.9439 14.2548C79.2665 13.5742 78.9292 12.7388 78.9292 11.7503C78.9292 10.7617 79.2665 9.92635 79.9439 9.24573C80.6227 8.5637 81.4637 8.22339 82.4727 8.22339C83.4701 8.22339 84.3112 8.5637 84.99 9.25136C85.6731 9.9376 86.0104 10.7673 86.0104 11.7503C86.0104 12.7388 85.6731 13.5742 84.9957 14.2548ZM80.5998 13.6895C81.1107 14.1943 81.7321 14.4474 82.4727 14.4474C83.2075 14.4474 83.8347 14.1943 84.3398 13.6895C84.8493 13.1846 85.1077 12.5363 85.1077 11.7503C85.1077 10.9642 84.8493 10.3159 84.3398 9.81104C83.8347 9.3062 83.2075 9.05307 82.4727 9.05307C81.7321 9.05307 81.1107 9.3062 80.5998 9.81104C80.0903 10.3159 79.8319 10.9642 79.8319 11.7503C79.8319 12.5363 80.0903 13.1846 80.5998 13.6895Z" fill="white" stroke="white" stroke-width="0.16" stroke-miterlimit="10"/>
<path d="M87.2544 15.1224V8.37805H88.3308L91.6776 13.6234H91.7164L91.6776 12.3268V8.37805H92.5632V15.1224H91.6389L88.1342 9.61836H88.0954L88.1342 10.9205V15.1224H87.2544Z" fill="white" stroke="white" stroke-width="0.16" stroke-miterlimit="10"/>
<path d="M78.7106 24.9716C76.0139 24.9716 73.8109 26.9825 73.8109 29.757C73.8109 32.509 76.0139 34.5411 78.7106 34.5411C81.4131 34.5411 83.6161 32.509 83.6161 29.757C83.6161 26.9825 81.4131 24.9716 78.7106 24.9716ZM78.7106 32.6567C77.231 32.6567 75.9579 31.46 75.9579 29.757C75.9579 28.0316 77.231 26.8559 78.7106 26.8559C80.1903 26.8559 81.4691 28.0316 81.4691 29.757C81.4691 31.46 80.1903 32.6567 78.7106 32.6567ZM68.0199 24.9716C65.3175 24.9716 63.1202 26.9825 63.1202 29.757C63.1202 32.509 65.3175 34.5411 68.0199 34.5411C70.7209 34.5411 72.9197 32.509 72.9197 29.757C72.9197 26.9825 70.7209 24.9716 68.0199 24.9716ZM68.0199 32.6567C66.5388 32.6567 65.2615 31.46 65.2615 29.757C65.2615 28.0316 66.5388 26.8559 68.0199 26.8559C69.4996 26.8559 70.7726 28.0316 70.7726 29.757C70.7726 31.46 69.4996 32.6567 68.0199 32.6567ZM55.2985 26.4383V28.4717H60.2541C60.1092 29.608 59.7217 30.4433 59.1275 31.0255C58.4042 31.7286 57.2776 32.509 55.2985 32.509C52.2487 32.509 49.8605 30.0973 49.8605 27.1091C49.8605 24.1208 52.2487 21.7091 55.2985 21.7091C56.9475 21.7091 58.1473 22.3405 59.0328 23.1589L60.4953 21.7259C59.2567 20.5672 57.6091 19.677 55.2985 19.677C51.1163 19.677 47.6016 23.0113 47.6016 27.1091C47.6016 31.2069 51.1163 34.5411 55.2985 34.5411C57.5589 34.5411 59.2567 33.8154 60.5914 32.4542C61.9591 31.114 62.3854 29.2297 62.3854 27.7081C62.3854 27.2356 62.3452 26.8011 62.2735 26.4383H55.2985ZM107.318 28.0147C106.915 26.9445 105.671 24.9716 103.136 24.9716C100.624 24.9716 98.5334 26.9108 98.5334 29.757C98.5334 32.4373 100.603 34.5411 103.377 34.5411C105.62 34.5411 106.915 33.2009 107.447 32.4205L105.783 31.3334C105.227 32.1294 104.471 32.6567 103.377 32.6567C102.291 32.6567 101.511 32.1687 101.012 31.2069L107.543 28.5589L107.318 28.0147ZM100.659 29.608C100.603 27.763 102.121 26.818 103.209 26.818C104.062 26.818 104.785 27.2356 105.026 27.8333L100.659 29.608ZM95.3502 34.25H97.4972V20.1875H95.3502V34.25ZM91.834 26.0375H91.7622C91.28 25.4778 90.36 24.9716 89.1947 24.9716C86.7491 24.9716 84.5131 27.0753 84.5131 29.7725C84.5131 32.4542 86.7491 34.5411 89.1947 34.5411C90.36 34.5411 91.28 34.0306 91.7622 33.454H91.834V34.1403C91.834 35.9698 90.8365 36.9528 89.2277 36.9528C87.9159 36.9528 87.1022 36.0247 86.7663 35.2442L84.8991 36.0078C85.4373 37.2762 86.8625 38.8372 89.2277 38.8372C91.745 38.8372 93.869 37.3859 93.869 33.8548V25.2627H91.834V26.0375ZM89.3784 32.6567C87.8987 32.6567 86.6601 31.4431 86.6601 29.7725C86.6601 28.0864 87.8987 26.8559 89.3784 26.8559C90.8365 26.8559 91.9861 28.0864 91.9861 29.7725C91.9861 31.4431 90.8365 32.6567 89.3784 32.6567ZM117.37 20.1875H112.235V34.25H114.376V28.9217H117.37C119.748 28.9217 122.08 27.2356 122.08 24.5539C122.08 21.8736 119.743 20.1875 117.37 20.1875ZM117.426 26.9656H114.376V22.1436H117.426C119.025 22.1436 119.938 23.4444 119.938 24.5539C119.938 25.6423 119.025 26.9656 117.426 26.9656ZM130.663 24.9448C129.116 24.9448 127.507 25.6142 126.845 27.0978L128.745 27.8783C129.155 27.0978 129.907 26.8447 130.702 26.8447C131.812 26.8447 132.939 27.4986 132.956 28.6531V28.8008C132.569 28.5814 131.739 28.2566 130.719 28.2566C128.672 28.2566 126.587 29.3605 126.587 31.4206C126.587 33.305 128.263 34.5186 130.148 34.5186C131.589 34.5186 132.384 33.8815 132.883 33.1405H132.956V34.2275H135.024V28.8331C135.024 26.3398 133.124 24.9448 130.663 24.9448ZM130.405 32.6511C129.704 32.6511 128.728 32.3108 128.728 31.46C128.728 30.3716 129.945 29.9539 130.999 29.9539C131.942 29.9539 132.384 30.1578 132.956 30.4264C132.788 31.7286 131.645 32.6511 130.405 32.6511ZM142.559 25.2528L140.098 31.3489H140.025L137.48 25.2528H135.171L138.994 33.7719L136.813 38.5123H139.05L144.942 25.2528H142.559ZM123.257 34.25H125.404V20.1875H123.257V34.25Z" fill="white"/>
<path d="M12.4626 8.98125C12.1254 9.32719 11.9302 9.86578 11.9302 10.5633V35.4426C11.9302 36.1401 12.1254 36.6787 12.4626 37.0246L12.5459 37.1006L26.7743 23.1647V22.8356L12.5459 8.89969L12.4626 8.98125Z" fill="url(#paint0_linear_164_5736)"/>
<path d="M31.5105 27.8123L26.7729 23.1646V22.8355L31.5162 18.1879L31.6224 18.2484L37.2398 21.3801C38.8429 22.2688 38.8429 23.7313 37.2398 24.6257L31.6224 27.7518L31.5105 27.8123Z" fill="url(#paint1_linear_164_5736)"/>
<path d="M31.6245 27.7518L26.775 23.0001L12.4634 37.0246C12.9958 37.573 13.8641 37.6391 14.8515 37.0907L31.6245 27.7518Z" fill="url(#paint2_linear_164_5736)"/>
<path d="M31.6245 18.2484L14.8515 8.90953C13.8641 8.36671 12.9958 8.4328 12.4634 8.98124L26.775 23.0001L31.6245 18.2484Z" fill="url(#paint3_linear_164_5736)"/>
<defs>
<linearGradient id="paint0_linear_164_5736" x1="25.511" y1="35.7017" x2="6.63473" y2="16.437" gradientUnits="userSpaceOnUse">
<stop stop-color="#00A0FF"/>
<stop offset="0.0066" stop-color="#00A1FF"/>
<stop offset="0.2601" stop-color="#00BEFF"/>
<stop offset="0.5122" stop-color="#00D2FF"/>
<stop offset="0.7604" stop-color="#00DFFF"/>
<stop offset="1" stop-color="#00E3FF"/>
</linearGradient>
<linearGradient id="paint1_linear_164_5736" x1="39.3273" y1="22.9985" x2="11.5456" y2="22.9985" gradientUnits="userSpaceOnUse">
<stop stop-color="#FFE000"/>
<stop offset="0.4087" stop-color="#FFBD00"/>
<stop offset="0.7754" stop-color="#FFA500"/>
<stop offset="1" stop-color="#FF9C00"/>
</linearGradient>
<linearGradient id="paint2_linear_164_5736" x1="28.9875" y1="20.417" x2="3.38979" y2="-5.70749" gradientUnits="userSpaceOnUse">
<stop stop-color="#FF3A44"/>
<stop offset="1" stop-color="#C31162"/>
</linearGradient>
<linearGradient id="paint3_linear_164_5736" x1="8.86084" y1="45.3019" x2="20.2914" y2="33.6362" gradientUnits="userSpaceOnUse">
<stop stop-color="#32A071"/>
<stop offset="0.0685" stop-color="#2DA771"/>
<stop offset="0.4762" stop-color="#15CF74"/>
<stop offset="0.8009" stop-color="#06E775"/>
<stop offset="1" stop-color="#00F076"/>
</linearGradient>
</defs>
</svg>
