<svg width="48" height="48" viewBox="0 0 48 48" fill="none" xmlns="http://www.w3.org/2000/svg">
<g clip-path="url(#clip0_7_55)">
<circle opacity="0.5" cx="24" cy="24" r="24" fill="#0F0F0F"/>
<circle opacity="0.6" cx="24" cy="24" r="20" fill="#0F0F0F"/>
<path d="M27.0155 33.9996H21C20.8808 33.9543 20.7554 33.9719 20.6332 33.9687C19.8328 33.948 19.034 33.9168 18.2516 33.725C16.6071 33.3215 15.3829 32.3864 14.6536 30.8446C14.2032 29.8915 14.0833 28.8665 14.0482 27.8267C13.9755 25.6603 14.0025 23.4936 14.0181 21.3276C14.0247 20.4182 14.0388 19.5058 14.2048 18.6058C14.4614 17.2148 15.1005 16.0488 16.245 15.1914C17.2254 14.4566 18.361 14.1703 19.5609 14.0766C20.0402 14.0391 20.5222 14.0613 21.0004 14H26.9768C27.4413 14.0605 27.9104 14.0426 28.3768 14.0754C29.1928 14.1328 29.9928 14.2668 30.7416 14.6039C32.5798 15.4308 33.5486 16.9038 33.8501 18.8569C33.9032 19.2019 33.9302 19.5511 33.9689 19.8983V27.945C33.9579 28.0146 33.94 28.0841 33.9376 28.1544C33.9232 28.5509 33.8817 28.9446 33.8126 29.3352C33.5907 30.5887 33.0607 31.6778 32.0966 32.5328C31.0521 33.4594 29.7943 33.8234 28.4342 33.9242C27.9619 33.9594 27.4866 33.9375 27.0159 34L27.0155 33.9996ZM24.0101 32.2012C24.5374 32.2012 25.0647 32.2067 25.5921 32.2C26.7241 32.1856 27.858 32.2094 28.983 32.0473C30.5064 31.8274 31.5806 30.8758 31.9623 29.4138C32.1244 28.7919 32.1494 28.154 32.1701 27.5165C32.2306 25.6619 32.2134 23.8064 32.1998 21.951C32.1927 20.9819 32.1958 20.0108 32.0552 19.0479C31.8212 17.4472 30.8338 16.38 29.2611 16.0242C28.5639 15.8664 27.8534 15.8558 27.1452 15.8422C25.2706 15.8054 23.396 15.8086 21.5211 15.832C20.6496 15.8429 19.7762 15.8402 18.9133 15.9929C17.3957 16.2613 16.3817 17.2265 16.0325 18.7265C15.8794 19.3847 15.8653 20.0554 15.8466 20.7245C15.8016 22.3319 15.8048 23.94 15.8196 25.5478C15.8302 26.6732 15.8032 27.8017 15.9626 28.92C16.1243 30.0528 16.627 30.9829 17.6418 31.5754C18.2731 31.9438 18.9754 32.0786 19.6961 32.125C21.1328 32.218 22.5718 32.2 24.0105 32.2012H24.0101Z" fill="white"/>
<path d="M18.8673 23.9973C18.8716 21.1603 21.1845 18.8549 24.0153 18.8666C26.8609 18.8783 29.1589 21.1868 29.1414 24.0161C29.1238 26.8563 26.8324 29.1425 24.0063 29.1402C21.1696 29.1375 18.8634 26.8293 18.8673 23.9977V23.9973ZM23.9887 27.3301C25.834 27.3387 27.323 25.8672 27.3348 24.0239C27.3465 22.1794 25.8758 20.6869 24.0333 20.6732C22.181 20.6591 20.6853 22.1372 20.6775 23.9891C20.6697 25.8317 22.1462 27.3215 23.9887 27.3301Z" fill="white"/>
<path d="M30.5417 18.6715C30.537 19.3402 29.9979 19.8675 29.3269 19.8597C28.6734 19.8519 28.1448 19.3105 28.1484 18.6519C28.1523 17.9934 28.6851 17.466 29.3464 17.4668C30.0186 17.4672 30.546 17.9992 30.5417 18.6719V18.6715Z" fill="white"/>
</g>
<defs>
<clipPath id="clip0_7_55">
<rect width="48" height="48" fill="white"/>
</clipPath>
</defs>
</svg>
