<svg width="48" height="48" viewBox="0 0 48 48" fill="none" xmlns="http://www.w3.org/2000/svg">
<g clip-path="url(#clip0_7_54)">
<circle opacity="0.5" cx="24" cy="24" r="24" fill="#0F0F0F"/>
<circle opacity="0.6" cx="24" cy="24" r="20" fill="#0F0F0F"/>
<path d="M25.1056 20.4462C25.466 19.8182 25.9619 19.3283 26.582 18.9619C27.5854 18.3691 28.6773 18.2553 29.8095 18.362C30.6033 18.4368 31.3634 18.6281 32.0368 19.0771C32.981 19.7057 33.4482 20.642 33.7072 21.7066C33.9454 22.6852 33.9909 23.6841 33.9935 24.6855C33.9994 27.028 33.9929 29.3706 34 31.7131C34.0007 31.9187 33.9408 31.9688 33.7417 31.9675C32.5216 31.9584 31.3015 31.9584 30.0815 31.9675C29.8817 31.9688 29.8433 31.905 29.8433 31.7202C29.8485 29.5241 29.8472 27.328 29.8433 25.1319C29.8427 24.6354 29.814 24.1409 29.7158 23.6522C29.4405 22.2883 28.5666 21.8244 27.2984 21.9734C26.1402 22.1094 25.5129 22.7874 25.3164 24.038C25.2442 24.4968 25.2181 24.9588 25.2188 25.4234C25.2207 27.5297 25.2168 29.6367 25.224 31.743C25.2246 31.9415 25.1784 32.0033 24.9715 32.0013C23.7514 31.9916 22.5314 31.9922 21.3113 32.0007C21.1207 32.002 21.0666 31.9525 21.0673 31.7586C21.0732 27.464 21.0732 23.1694 21.0673 18.8754C21.0673 18.6912 21.1181 18.6424 21.2989 18.6437C22.4702 18.6515 23.6415 18.6528 24.8127 18.6424C25.021 18.6405 25.0529 18.7199 25.0496 18.8975C25.0405 19.4083 25.0463 19.9198 25.0463 20.4306C25.0659 20.4358 25.086 20.441 25.1056 20.4468V20.4462Z" fill="white"/>
<path d="M14.3299 25.2923C14.3299 23.1619 14.3325 21.0315 14.3254 18.9004C14.3247 18.7007 14.3748 18.6402 14.5798 18.6421C15.7992 18.6519 17.0193 18.6512 18.2393 18.6421C18.4346 18.6408 18.4821 18.6994 18.4814 18.8887C18.4762 23.1742 18.4762 27.4598 18.4814 31.7453C18.4814 31.9483 18.428 32.003 18.225 32.0017C17.0056 31.9919 15.7855 31.9926 14.5655 32.0017C14.3696 32.003 14.3241 31.9451 14.3247 31.7564C14.3312 29.6012 14.3286 27.4468 14.3286 25.2916L14.3299 25.2923Z" fill="white"/>
<path d="M18.7963 14.3972C18.8009 15.7233 17.7259 16.8184 16.4135 16.8249C15.0958 16.8308 13.9981 15.7279 14 14.3991C14.002 13.0906 15.0776 12.0104 16.3874 12.0013C17.709 11.9922 18.7918 13.0691 18.7963 14.3972Z" fill="white"/>
</g>
<defs>
<clipPath id="clip0_7_54">
<rect width="48" height="48" fill="white"/>
</clipPath>
</defs>
</svg>
