<svg width="96" height="60" viewBox="0 0 96 60" fill="none" xmlns="http://www.w3.org/2000/svg">
<g clip-path="url(#clip0_16_6636)">
<path d="M10.6707 12.811L10.4594 17.2666L17.6818 17.0888V25.0832H0.651611V-0.0278778H10.6707V12.811Z" fill="#1D7D6D"/>
<path d="M30.7031 17.3721L40.9334 17.0888V25.0832H20.5117V-0.0278778H40.0827V7.71656L29.8524 7.43323V9.09434H37.8143V15.7055H30.6975V17.3721H30.7031Z" fill="#1D7D6D"/>
<path d="M53.2488 21.6888L52.2925 25.0832H42.5237L50.0963 -0.0278778H62.306L70.3401 25.0832H60.0097L59.0534 21.6888H53.2488ZM58.0638 15.3221L56.1178 8.42768L54.2441 15.3221H58.0638Z" fill="#1D7D6D"/>
<path d="M82.8389 18.1499V25.0832H72.8198V-0.0278778H86.8365C92.4298 -0.0278778 95.51 3.22768 95.51 8.81656C95.51 14.1555 91.5458 17.7666 85.174 18.0499L82.8389 18.1499ZM82.6276 11.4666H84.0787C85.5299 11.4666 86.4862 10.5832 86.4862 8.92212C86.4862 7.61101 85.8857 6.76656 84.3289 6.76656H82.6276V11.4666Z" fill="#1D7D6D"/>
<path d="M10.6761 54.9388L12.8945 59.711L7.82386 59.8333L5.67216 55.0999L5.68884 59.711H0.740479V47.2999H8.38541C10.8151 47.2999 12.3385 48.961 12.3385 50.8499C12.3385 52.7388 11.499 53.611 9.95888 54.2221L10.6761 54.9388ZM5.58876 52.3721H6.30599C7.02323 52.3721 7.49582 52.0944 7.49582 51.2721C7.49582 50.6277 7.20114 50.2055 6.42831 50.2055H5.58876V52.3721Z" fill="#1D7D6D"/>
<path d="M19.1606 55.8999L24.2146 55.761V59.711H14.1233V47.2999H23.7976V51.1277L18.7436 50.9888V51.811H22.6801V55.0777H19.1662V55.8999H19.1606Z" fill="#1D7D6D"/>
<path d="M36.7022 53.4555L38.398 47.3055H43.2241L39.4822 59.711H35.8071L34.2003 56.2832L32.6601 59.711H28.9683L24.9985 47.3055H30.1081L31.8039 53.4555L34.2169 48.511L36.7022 53.4555Z" fill="#1D7D6D"/>
<path d="M47.7388 58.0332L47.2662 59.711H42.4402L46.182 47.3055H52.2146L56.1844 59.711H51.0748L50.6022 58.0332H47.7388ZM50.1185 54.8888L49.1566 51.4832L48.2337 54.8888H50.1185Z" fill="#1D7D6D"/>
<path d="M67.3487 54.9388L69.5671 59.711L64.4965 59.8333L62.3448 55.0999L62.3614 59.711H57.4131V47.2999H65.058C67.4877 47.2999 69.0112 48.961 69.0112 50.8499C69.0112 52.7388 68.1716 53.611 66.6315 54.2221L67.3487 54.9388ZM62.2614 52.3721H62.9786C63.6958 52.3721 64.1684 52.0944 64.1684 51.2721C64.1684 50.6277 63.8738 50.2055 63.1009 50.2055H62.2614V52.3721Z" fill="#1D7D6D"/>
<path d="M70.7959 59.711V47.2999H77.1787C80.0977 47.2999 82.95 48.4888 82.95 53.611C82.95 58.5221 80.0143 59.711 76.9007 59.711H70.7959ZM76.1835 50.8999H75.6053V55.9332H76.1835C77.4067 55.9332 78.1072 55.2499 78.1072 53.311C78.1072 51.5499 77.4067 50.8999 76.1835 50.8999Z" fill="#1D7D6D"/>
<path d="M93.7973 52.7388C95.1261 53.5944 95.4263 54.7332 95.4263 55.8166C95.4263 58.1944 93.6082 59.9777 89.5161 59.9777C87.6257 59.9777 85.4407 59.6277 83.9172 58.9999L84.2675 54.911C85.4573 55.6999 87.331 56.2721 88.76 56.2721C89.7218 56.2721 89.9665 55.9055 89.9665 55.5221C85.0848 55.1221 83.9339 53.4777 83.9339 51.2055C83.9339 48.6555 85.7687 47.0444 89.7051 47.0444C92.3294 47.0444 94.1976 47.7277 95.0594 48.1277L94.9537 52.3221C93.9585 51.4499 92.0181 50.7666 90.528 50.7666C89.5661 50.7666 89.3048 51.0999 89.3048 51.4999C91.5233 51.6721 92.9021 52.161 93.7973 52.7388Z" fill="#1D7D6D"/>
<path d="M94.8537 36.8611H65.7752C65.5305 36.8611 65.3359 36.7278 65.3359 36.5667C65.3359 36.4056 65.5305 36.2722 65.7752 36.2722H94.8537C95.0984 36.2722 95.293 36.4056 95.293 36.5667C95.293 36.7278 95.0984 36.8611 94.8537 36.8611Z" fill="#1D7D6D"/>
<path d="M30.2251 36.8611H1.14651C0.901874 36.8611 0.707275 36.7278 0.707275 36.5667C0.707275 36.4056 0.901874 36.2722 1.14651 36.2722H30.2251C30.4697 36.2722 30.6643 36.4056 30.6643 36.5667C30.6643 36.7278 30.4641 36.8611 30.2251 36.8611Z" fill="#1D7D6D"/>
<path d="M53.8882 42.4667H42.2734C39.1098 42.4667 36.5244 39.8833 36.5244 36.7222V36.4167C36.5244 33.2556 39.1098 30.6722 42.2734 30.6722H53.8882C57.0518 30.6722 59.6371 33.2556 59.6371 36.4167V36.7222C59.6371 39.8833 57.0518 42.4667 53.8882 42.4667Z" fill="#1D7D6D"/>
<path d="M46.1875 36.5389C46.1875 34.3445 47.9667 32.5667 50.1629 32.5667H47.0716C44.8754 32.5667 43.0962 34.3445 43.0962 36.5389C43.0962 38.7333 44.8754 40.5111 47.0716 40.5111H50.1629C47.9667 40.5111 46.1875 38.7333 46.1875 36.5389Z" fill="#4CC3AD"/>
<path d="M49.4514 36.5389C49.4514 34.3445 51.2306 32.5667 53.4268 32.5667H50.3355H50.1631C47.9669 32.5667 46.1877 34.3445 46.1877 36.5389C46.1877 38.7333 47.9669 40.5111 50.1631 40.5111H50.3355H53.4268C51.2306 40.5111 49.4514 38.7333 49.4514 36.5389Z" fill="#A6E1D6"/>
<path d="M53.4268 40.5111C55.6223 40.5111 57.4022 38.7327 57.4022 36.5389C57.4022 34.3451 55.6223 32.5667 53.4268 32.5667C51.2312 32.5667 49.4514 34.3451 49.4514 36.5389C49.4514 38.7327 51.2312 40.5111 53.4268 40.5111Z" fill="white"/>
</g>
<defs>
<clipPath id="clip0_16_6636">
<rect width="94.964" height="60" fill="white" transform="translate(0.518066)"/>
</clipPath>
</defs>
</svg>
