<svg width="48" height="48" viewBox="0 0 48 48" fill="none" xmlns="http://www.w3.org/2000/svg">
<g clip-path="url(#clip0_7_56)">
<circle opacity="0.5" cx="24" cy="24" r="24" fill="#0F0F0F"/>
<circle opacity="0.6" cx="24" cy="24" r="20" fill="#0F0F0F"/>
<path d="M14.2494 30.1165C16.4546 30.3018 18.4379 29.7773 20.2399 28.4134C18.3495 28.2393 17.1042 27.2885 16.4068 25.5455C17.0249 25.6117 17.6057 25.6149 18.2107 25.4689C16.1966 24.8371 15.1241 23.4948 14.9644 21.3589C15.5681 21.6451 16.1377 21.8474 16.8206 21.8539C16.3472 21.4879 15.9786 21.1009 15.6879 20.6439C14.8544 19.3331 14.7922 17.979 15.4633 16.5856C15.5772 16.3493 15.5792 16.3512 15.7566 16.5562C17.4728 18.5336 19.5956 19.8359 22.157 20.4056C22.7162 20.53 23.2826 20.6072 23.8562 20.6393C24.0146 20.6478 24.0487 20.6112 24.0212 20.4508C23.718 18.6619 24.5725 16.915 26.1505 16.0775C27.7305 15.2394 29.6457 15.5144 30.9617 16.7742C31.06 16.8685 31.1418 16.9012 31.2832 16.8665C32.0493 16.6786 32.7833 16.4115 33.4767 16.035C33.5298 16.0062 33.5769 15.9485 33.6823 15.9826C33.3772 16.9012 32.8049 17.6038 32.0133 18.1499C32.7689 18.0785 33.4787 17.8585 34.248 17.5488C34.1551 17.6922 34.1053 17.7767 34.0483 17.8559C33.5776 18.5126 33.0171 19.0836 32.3734 19.5694C32.2327 19.6755 32.1855 19.7783 32.1914 19.9538C32.3387 24.5536 29.6057 29.0918 25.4577 30.9127C21.7196 32.5536 18.0267 32.3342 14.4648 30.2985C14.4013 30.2619 14.3391 30.2226 14.2775 30.1813C14.2664 30.1741 14.2644 30.1538 14.248 30.1178L14.2494 30.1165Z" fill="white"/>
</g>
<defs>
<clipPath id="clip0_7_56">
<rect width="48" height="48" fill="white"/>
</clipPath>
</defs>
</svg>
