<svg width="55" height="60" viewBox="0 0 55 60" fill="none" xmlns="http://www.w3.org/2000/svg">
<g id="Group 3716">
<g id="Clip path group">
<mask id="mask0_1969_8623" style="mask-type:luminance" maskUnits="userSpaceOnUse" x="0" y="0" width="55" height="61">
<g id="clip-path">
<path id="Rectangle 1546" d="M55 0H0V60.0005H55V0Z" fill="white"/>
</g>
</mask>
<g mask="url(#mask0_1969_8623)">
<g id="Group 3670">
<path id="Path 11123" d="M22.0888 58.5054C22.4861 58.5 22.8746 58.3892 23.2135 58.1846C23.5524 57.98 23.8293 57.6893 24.0149 57.3429C23.6587 56.3734 23.4358 55.3612 23.3521 54.3333C23.1636 51.3156 24.3403 48.477 25.6324 48.399C26.5795 48.3428 27.3366 49.2235 27.424 50.656C27.6559 54.4165 26.3872 55.9839 25.7518 57.3399C25.8998 57.7214 26.1515 58.0553 26.4794 58.305C26.8072 58.5546 27.1985 58.7104 27.6102 58.755C27.8991 58.7556 28.1791 58.657 28.4023 58.4762C28.3143 58.1844 28.271 57.8812 28.2738 57.5767C28.2738 55.3985 29.6937 53.5628 30.9258 53.5628C31.9049 53.5628 32.4719 54.8371 32.4719 55.6788C32.4719 56.6735 31.6191 57.4838 30.3588 58.2626C30.6291 58.4991 30.9765 58.6321 31.3378 58.6374C33.137 58.6374 34.0795 56.4898 34.775 54.5282C34.902 54.1534 35.127 53.6288 35.5656 53.6288C36.3257 53.6288 36.6419 58.5467 37.8998 58.5467C38.4319 58.5467 38.8758 57.4545 38.8758 56.618C38.8758 55.9951 38.6562 55.9329 38.6562 55.0304C38.6562 54.0343 39.1951 53.1993 39.921 53.1993C40.3641 53.1993 40.5215 53.6303 40.5215 54.1602C40.5215 56.1495 39.0681 59.8569 36.9254 59.8569C35.314 59.8569 35.4394 57.118 34.8731 57.118C34.2384 57.118 33.3529 59.8869 30.2364 59.8869C29.9491 59.8745 29.6679 59.8012 29.4119 59.6718C29.156 59.5425 28.9314 59.3601 28.7535 59.1373C28.142 59.5897 27.4016 59.8407 26.6373 59.8547C25.4713 59.8547 24.9651 58.6726 24.4938 58.6726C23.9237 58.6726 23.2951 59.8846 21.3994 59.8846C19.883 59.8846 19.6329 57.8953 19.0963 57.8953C18.622 57.8953 17.8991 59.8846 17.1101 59.8846C15.7814 59.8846 15.5009 56.4366 14.3311 56.4366C13.419 56.4366 10.5253 59.9386 9.74084 59.8606C9.67273 59.8557 9.60656 59.836 9.54703 59.803C9.4875 59.7701 9.43606 59.7245 9.39638 59.6697C9.35669 59.6149 9.32973 59.5522 9.3174 59.4859C9.30507 59.4197 9.30769 59.3516 9.32506 59.2865C9.3699 58.854 9.7454 57.6996 9.89666 57.1585C10.1528 56.2125 10.3862 55.1721 10.5169 54.843C10.5744 54.6881 10.6774 54.5535 10.8128 54.4564C10.9482 54.3594 11.1098 54.3043 11.277 54.2981C11.4192 54.3101 11.464 54.571 11.5051 54.7838C11.6639 55.5544 11.8851 56.3392 12.1367 56.3392C12.5798 56.3392 14.0431 53.5703 14.8936 53.5703C15.938 53.5703 16.0627 57.9283 17.4826 57.9283C17.9584 57.9283 18.3042 57.3691 18.6182 56.681C18.6508 55.5267 18.9686 53.8814 19.9103 53.8814C20.5732 53.8814 20.8909 55.3423 20.4151 56.6203C20.4151 58.1449 21.4268 58.5167 22.0873 58.5167M47.3298 54.7831C46.9406 56.3827 45.7556 58.7386 43.9853 58.7386C43.5756 58.7386 42.8497 58.5819 42.8497 58.1764C42.8497 57.7394 45.6271 57.6802 45.6271 55.5926C45.6111 55.1181 45.4191 54.6659 45.0875 54.3217C44.7559 53.9776 44.3077 53.7654 43.8279 53.7254C42.4096 53.7254 41.0231 55.2516 41.0231 57.3691C41.0231 59.264 42.2188 59.8869 43.4175 59.8869C45.4987 59.8869 46.762 58.2056 47.4225 56.8054C47.7425 57.7394 47.9272 59.8869 48.7185 59.8869C49.0362 59.8869 49.2559 59.7317 49.6359 58.8922C50.58 56.8054 51.4959 54.4083 52.7607 54.4083C53.2305 54.4083 52.9477 55.2508 54.0826 55.2508C54.2051 55.2496 54.3261 55.2243 54.4386 55.1764C54.5511 55.1285 54.6528 55.0589 54.7377 54.9718C54.8226 54.8847 54.8891 54.7818 54.9332 54.6691C54.9773 54.5564 54.9982 54.4361 54.9947 54.3154C54.9947 53.598 54.3342 53.0411 53.3225 53.0411C50.358 53.0411 49.7279 57.4306 49.2536 57.4306C48.4661 57.4306 48.7162 53.9121 48.1492 53.9121C47.6445 53.9121 47.3929 54.5117 47.326 54.7846M26.3948 51.5097C26.3393 50.6402 26.1258 50.2467 25.6522 50.2789C25.0236 50.3142 24.7332 52.2668 24.8617 54.3154C24.9438 55.6511 25.1445 55.8587 25.3345 55.846C25.6803 55.8257 26.5149 53.4361 26.3948 51.5097ZM21.2611 49.6808C21.2418 49.4428 21.1286 49.2219 20.9458 49.0654C20.7629 48.909 20.5251 48.8296 20.2836 48.8443C20.1171 48.8626 19.9561 48.9135 19.8099 48.9941C19.6637 49.0747 19.5354 49.1834 19.4325 49.3136C19.3296 49.4439 19.2541 49.5932 19.2106 49.7527C19.1671 49.9121 19.1564 50.0786 19.1791 50.2422C19.1761 50.366 19.1986 50.4891 19.2453 50.604C19.292 50.719 19.3619 50.8234 19.4508 50.9109C19.5396 50.9984 19.6456 51.0671 19.7622 51.113C19.8789 51.1588 20.0037 51.1809 20.1293 51.1777C20.4807 51.1265 20.7972 50.9399 21.0093 50.6589C21.2214 50.3778 21.3116 50.0252 21.2603 49.6785M31.0748 56.0274C31.0748 55.4974 30.7921 55.0634 30.4477 55.0634C30.1604 55.0634 29.4991 55.3722 29.4991 56.3684C29.4682 56.8402 29.6146 57.3066 29.9103 57.6787C30.2649 57.574 30.573 57.354 30.7844 57.0546C30.9959 56.7551 31.0983 56.3938 31.0748 56.0296M43.4213 54.9607C44.0826 54.9607 44.2726 55.7358 44.1137 56.2035C43.9688 56.516 43.7445 56.7862 43.4626 56.9882C43.1807 57.1901 42.8507 57.3169 42.5046 57.3563C42.3176 56.8886 42.2218 54.9577 43.4205 54.9577M7.0873 52.7473C6.90985 52.2955 6.7673 51.8312 6.66087 51.3583C6.56528 50.9904 6.60314 50.6011 6.76791 50.2578C6.93268 49.9145 7.21398 49.6388 7.56312 49.4784C8.12864 49.3202 8.34984 49.6006 8.57027 50.2572C8.86132 51.6269 8.93542 53.0327 8.78994 54.4248C8.66756 56.9733 7.37234 60.0578 4.15327 59.9941C1.37583 59.9319 0.146736 58.1599 0.0167569 55.4517C-0.0556378 53.9779 0.1379 52.5031 0.588359 51.096C0.87112 50.132 1.12044 49.7872 2.00596 49.5968C2.70222 49.4747 2.63761 50.189 2.48027 51.0315C2.10856 52.6322 1.98047 54.2785 2.10022 55.9164C2.22411 58.1569 3.26775 59.0271 4.40183 59.0271C6.10599 59.0594 6.86382 57.6607 7.17775 55.6368C7.3906 54.6794 7.35821 53.6848 7.08349 52.7428" fill="white"/>
<path id="Path 11124" d="M44.2985 12.2673C44.5182 13.8354 46.9293 15.9492 47.5807 15.9019C48.0177 15.8637 48.1888 13.8549 48.1888 12.2673C48.1888 11.3588 48.2397 10.649 47.7547 10.4841C46.9825 12.0222 44.9576 12.3333 44.3023 12.2673M44.4399 11.5739C46.179 11.5739 47.7715 10.2037 47.7715 8.99918C47.7855 8.86404 47.7715 8.72751 47.7306 8.59782C47.6896 8.46813 47.6224 8.34796 47.533 8.24458C47.4437 8.14119 47.334 8.05672 47.2106 7.99627C47.0873 7.93581 46.9528 7.90062 46.8153 7.89282C46.8774 7.96567 46.9242 8.04996 46.9531 8.1408C46.9819 8.23165 46.9922 8.32723 46.9832 8.42202C46.9832 9.32824 45.5778 10.3379 44.0545 10.3379C43.9684 10.3269 43.8809 10.3333 43.7973 10.3567C43.7138 10.3801 43.6359 10.4201 43.5686 10.4742C43.5012 10.5283 43.4457 10.5953 43.4055 10.6713C43.3653 10.7472 43.3412 10.8304 43.3347 10.9158C43.3347 11.3768 43.7855 11.5739 44.4399 11.5739ZM44.0697 9.70827C43.9215 9.73208 43.7694 9.7098 43.6345 9.64453C43.4997 9.57925 43.3888 9.47421 43.3172 9.34398C43.1652 9.0479 43.2169 8.56668 42.9326 8.35605C43.2015 8.41978 43.478 8.44652 43.7543 8.43551C44.5083 8.43551 45.2281 7.92655 45.7807 7.92655C45.8447 7.91882 45.9096 7.92529 45.9708 7.94549C46.0319 7.96568 46.0877 7.9991 46.134 8.04329C46.1803 8.08748 46.2161 8.14132 46.2386 8.20088C46.2611 8.26044 46.2699 8.32422 46.2642 8.38754C46.2642 9.11462 44.7774 9.70827 44.0697 9.70827Z" fill="white"/>
<path id="Path 11125" d="M6.61421 22.6522C7.18278 22.6522 7.07028 19.2192 7.98773 19.2192C8.2036 19.2192 8.27049 19.4328 8.27049 19.6959C8.27049 20.474 7.89044 21.6133 7.89044 22.2399C7.89044 22.5533 7.97101 22.6515 8.12379 22.6515C8.52589 22.6515 9.22975 18.8691 9.91537 18.8691C10.135 18.8691 10.2339 19.0865 10.2339 19.3009C10.2339 20.0939 9.21303 22.3741 9.21303 23.015C9.21303 23.1132 9.24419 23.1964 9.32781 23.1964C9.74739 23.1964 10.585 21.4147 10.848 20.5219C11 20.061 11.2 19.8113 11.3854 19.8113C11.5526 19.8113 11.7039 19.992 11.7039 20.3743C11.7039 21.2648 10.8678 23.3635 10.1312 24.7667C9.56116 25.8558 8.67487 27.4262 8.67487 28.2979C8.66613 28.5839 8.72855 28.8675 8.85668 29.1242C8.98482 29.3808 9.17476 29.6026 9.4099 29.7701C8.33814 29.7041 7.90108 29.6044 7.49974 28.7792C5.70969 32.2946 10.7979 31.9476 9.05493 35.0695C8.73948 34.5088 6.2296 33.9317 6.2296 30.6613C6.2296 27.8362 8.73796 26.1842 8.73796 25.0126C8.73939 24.8947 8.7126 24.7782 8.65977 24.6724C8.60694 24.5666 8.52956 24.4747 8.43392 24.4039C7.88132 23.94 7.86383 23.5614 7.42981 23.5614C7.10981 23.5614 6.72519 24.2893 7.12577 24.9309C7.26031 25.1445 7.37736 25.2764 7.37736 25.4766C7.37736 25.9368 6.6393 27.1766 6.12318 27.1766C5.60707 27.1766 5.20117 25.9023 5.20117 23.8575C5.20117 22.0398 5.61923 20.2079 6.13839 20.2079C6.29041 20.2079 6.33906 20.3068 6.33906 20.4402C6.33906 20.6539 6.27293 21.0811 6.27293 21.8104C6.27293 22.587 6.45687 22.6515 6.60661 22.6515" fill="white"/>
<path id="Path 11126" d="M10.883 27.4907C11.5861 27.4907 12.1752 26.9757 12.1752 25.8416V24.1574C12.1127 23.4925 12.2845 22.8267 12.6616 22.2722C12.6208 22.4904 12.6042 22.7123 12.6122 22.9341C12.6122 24.3582 13.4157 25.3327 13.4157 26.7006C13.4157 27.2103 13.2636 27.4914 12.8615 27.4914C12.4815 27.4914 12.5111 27.1444 12.4275 27.1444C12.3622 27.1444 12.2611 27.3573 12.2611 27.5881C12.2608 27.709 12.2855 27.8286 12.3336 27.9398C12.3817 28.0509 12.4522 28.1513 12.5409 28.2347C12.6295 28.3181 12.7345 28.3829 12.8493 28.4251C12.9642 28.4673 13.0865 28.486 13.2089 28.4801C13.5071 28.465 13.7876 28.3359 13.991 28.1203C14.1943 27.9047 14.3045 27.6194 14.2982 27.325C14.2982 25.8394 13.1268 24.1896 13.1268 22.6028C13.1288 22.0778 13.2435 21.5592 13.4636 21.0811C13.4636 24.368 16.2934 26.7636 16.2934 28.1323C16.295 28.208 16.2807 28.2832 16.2516 28.3533C16.2225 28.4234 16.179 28.4868 16.124 28.5397C16.069 28.5925 16.0036 28.6336 15.9318 28.6605C15.86 28.6874 15.7834 28.6995 15.7066 28.696C15.6336 28.699 15.5608 28.6876 15.4923 28.6624C15.4239 28.6371 15.3612 28.5987 15.3081 28.5492C15.255 28.4998 15.2124 28.4403 15.1829 28.3744C15.1535 28.3084 15.1377 28.2373 15.1366 28.1653C15.1366 28.0506 15.1183 28.0154 15.0689 28.0154C14.9394 28.0953 14.8338 28.2079 14.7633 28.3415C14.6927 28.4751 14.6597 28.625 14.6676 28.7754C14.6716 28.9384 14.7083 29.0989 14.7755 29.2478C14.8428 29.3967 14.9392 29.531 15.0593 29.643C15.1795 29.755 15.3209 29.8424 15.4754 29.9002C15.6299 29.9581 15.7945 29.9852 15.9598 29.98C16.1567 29.9785 16.3515 29.9383 16.5325 29.8617C16.7136 29.7852 16.8774 29.6739 17.0144 29.5343C17.1514 29.3946 17.2588 29.2295 17.3304 29.0485C17.402 28.8675 17.4363 28.6743 17.4313 28.4801C17.4313 26.7479 13.9979 24.1206 13.9979 21.3158C13.986 20.6731 14.1356 20.0375 14.4335 19.4658C13.5569 19.9606 12.8279 20.6742 12.3196 21.5348C11.8112 22.3954 11.5415 23.3728 11.5374 24.3687C11.5374 25.7929 11.4865 26.4998 10.75 26.4998C10.3653 26.4998 10.265 26.1527 10.132 26.1527C10.0301 26.1527 9.97998 26.4525 9.97998 26.5335C9.97299 26.6555 9.99114 26.7777 10.0333 26.8927C10.0755 27.0077 10.1409 27.113 10.2255 27.2024C10.3101 27.2917 10.4121 27.3633 10.5255 27.4127C10.6389 27.4621 10.7613 27.4884 10.8853 27.4899" fill="white"/>
<path id="Path 11127" d="M39.8984 10.9952C40.6365 10.9952 41.1906 10.6661 41.1906 10.466C41.1906 10.4 41.0902 10.3506 40.8736 10.3506C40.3785 10.341 39.885 10.2908 39.3983 10.2007C38.6936 10.0852 38.1578 9.82588 37.9586 9.82588C37.891 9.82588 37.8552 9.85811 37.8552 9.90833C37.8552 10.3378 38.6602 10.9959 39.9007 10.9959M36.2522 8.89716C37.068 8.85708 37.8716 8.68462 38.6305 8.38671C38.7628 8.31215 38.9122 8.27192 39.0646 8.26978C39.6514 8.26978 39.5016 8.93164 40.039 8.93164C40.4548 8.93164 40.9937 8.58534 41.3122 8.58534C41.8108 8.58534 42.5284 10.1369 42.5284 10.8618C42.5284 11.7058 41.243 12.2162 39.716 12.2162C38.8315 12.2188 37.9774 11.898 37.3188 11.3159C36.6601 10.7338 36.2435 9.9316 36.1495 9.06432C36.1482 9.0298 36.157 8.99564 36.1748 8.96588C36.1926 8.93612 36.2186 8.91201 36.2499 8.89641" fill="white"/>
<path id="Path 11128" d="M11.2369 33.7145C10.7823 33.9136 10.4002 34.2451 10.1421 34.6644C9.88393 35.0838 9.76203 35.571 9.79274 36.0606C9.91584 37.1925 10.4598 38.2392 11.3196 38.9988C12.1794 39.7583 13.2941 40.1769 14.4484 40.1735C16.8922 40.1735 17.4957 38.5057 17.4957 37.3814C17.4957 34.8876 15.9382 33.1381 13.9141 33.1381C13.6448 33.1283 13.3764 33.1716 13.1244 33.2656C12.8724 33.3596 12.642 33.5023 12.4468 33.6853C12.2516 33.8683 12.0954 34.088 11.9875 34.3314C11.8796 34.5748 11.8221 34.8371 11.8184 35.1027C11.8194 35.466 11.8937 35.8254 12.0371 36.16C12.1805 36.4946 12.3901 36.7977 12.6537 37.0515C12.9172 37.3053 13.2294 37.5048 13.572 37.6383C13.9146 37.7717 14.2808 37.8365 14.6491 37.8289C14.8433 37.8397 15.0377 37.8107 15.22 37.7438C15.4024 37.677 15.5687 37.5736 15.7086 37.4403C15.8484 37.3069 15.9588 37.1465 16.0327 36.969C16.1066 36.7916 16.1425 36.601 16.1381 36.4092C16.1255 35.9615 15.9463 35.5341 15.6347 35.2083C15.3231 34.8825 14.9008 34.6811 14.4484 34.6425C14.3793 34.6381 14.3101 34.6483 14.2453 34.6722C14.1806 34.6962 14.1217 34.7335 14.0726 34.7816C14.0235 34.8297 13.9854 34.8876 13.9607 34.9513C13.9359 35.0151 13.9252 35.0833 13.9293 35.1514C13.9293 35.5472 14.4819 35.9467 15.1667 35.9467C15.2937 35.9499 15.42 35.9271 15.5376 35.88C15.5716 35.9405 15.5886 36.0088 15.5871 36.0779C15.5871 36.4527 15.2154 36.6903 14.6483 36.6903C14.4297 36.6948 14.2124 36.6562 14.0092 36.5767C13.8059 36.4973 13.6208 36.3786 13.4646 36.2276C13.3085 36.0767 13.1846 35.8965 13.1 35.6977C13.0155 35.4988 12.972 35.2853 12.9723 35.0697C12.9723 34.4768 13.493 34.045 14.2447 34.045C14.5757 34.0589 14.9006 34.1377 15.2004 34.2769C15.5001 34.4161 15.7687 34.6129 15.9903 34.8558C16.212 35.0986 16.3822 35.3827 16.4911 35.6912C16.6001 35.9998 16.6454 36.3267 16.6246 36.6528C16.6246 37.8274 15.9701 38.505 14.6324 38.505C11.9522 38.505 10.6471 36.1259 11.2331 33.713" fill="white"/>
<path id="Path 11129" d="M29.052 40.0901C29.0517 40.221 29.0908 40.349 29.1643 40.4579C29.2379 40.5669 29.3425 40.6519 29.4651 40.7021C29.5877 40.7523 29.7226 40.7655 29.8528 40.7401C29.983 40.7146 30.1026 40.6516 30.1964 40.5591C30.2903 40.4665 30.3542 40.3486 30.38 40.2202C30.4058 40.0918 30.3924 39.9587 30.3415 39.8379C30.2905 39.717 30.2044 39.6138 30.0939 39.5413C29.9834 39.4687 29.8536 39.4302 29.7209 39.4305C29.5438 39.4316 29.3744 39.5015 29.2492 39.625C29.124 39.7484 29.0531 39.9155 29.052 40.0901ZM30.3479 43.3882C30.6873 43.3875 31.0263 43.3653 31.3627 43.3215C31.6143 43.3215 31.631 43.4714 31.631 43.5726C31.631 43.9339 30.8093 44.3814 29.3507 44.3814C29.027 44.411 28.7024 44.3349 28.4269 44.1648C28.1514 43.9947 27.9402 43.74 27.8259 43.4399C26.8173 44.0692 25.6548 44.4175 24.4617 44.4481C21.0298 44.4481 20.1587 42.9767 19.0869 42.4992C18.2652 42.1364 17.0095 42.8447 15.2529 40.9124C15.5175 40.9592 15.786 40.9813 16.0548 40.9783C17.5963 40.9783 18.4112 40.2362 18.4112 39.0452C18.4095 38.8922 18.3981 38.7395 18.377 38.5879C18.8444 38.8164 19.2505 39.1503 19.5623 39.5627C19.8742 39.9751 20.0829 40.4542 20.1716 40.9611C20.2043 41.129 20.8929 41.2751 21.327 41.2751C21.5062 41.2927 21.6872 41.2749 21.8594 41.2229C22.0317 41.1708 22.1917 41.0856 22.3302 40.972C22.4688 40.8585 22.5831 40.719 22.6665 40.5615C22.7498 40.4041 22.8007 40.2318 22.816 40.0549C24.8258 39.8907 26.1833 38.7191 26.4645 37.2297C27.1448 37.469 27.7464 37.8858 28.2052 38.4358C28.5294 38.3302 28.8694 38.2795 29.2108 38.2859C29.8422 38.2997 30.4681 38.4061 31.0678 38.6014C31.1004 38.3841 31.1347 38.1187 31.4721 38.1187C31.9715 38.1187 31.8385 38.6659 32.0042 38.9792C32.0878 39.1426 32.5097 39.2416 32.5097 39.5736C32.5104 39.6304 32.4995 39.6868 32.4777 39.7393C32.4559 39.7919 32.4235 39.8395 32.3826 39.8795C32.3416 39.9194 32.293 39.9508 32.2395 39.9718C32.1859 39.9928 32.1287 40.0029 32.0711 40.0016C32.0031 40.0001 31.9357 39.9898 31.8704 39.9709C31.5383 40.0848 31.52 42.4639 30.11 42.4639C29.5674 42.4114 29.0519 42.205 28.6258 41.8696C28.1996 41.5343 27.8812 41.0844 27.7088 40.5743C27.6717 40.4389 27.5944 40.3176 27.4869 40.2259C27.3794 40.1341 27.2465 40.0761 27.1053 40.0593C26.8378 40.0593 26.688 40.1096 26.3703 40.4551C25.8234 41.0314 25.1618 41.4901 24.4269 41.8028C23.692 42.1154 22.8996 42.2752 22.0992 42.2721C21.5307 42.2721 21.0784 42.2218 20.9591 42.2218C20.8937 42.2218 20.8937 42.2368 20.8937 42.2571C20.8937 42.3703 21.4607 42.8162 22.6982 42.8162C25.6467 42.8162 26.368 41.1814 26.8347 41.1814C26.919 41.1779 27.0022 41.2021 27.071 41.2503C27.1398 41.2985 27.1904 41.3679 27.2148 41.4475C27.4782 42.0431 27.9169 42.5468 28.4741 42.8936C29.0312 43.2404 29.6811 43.4143 30.3396 43.3927" fill="white"/>
<path id="Path 11130" d="M40.5058 32.8733C40.1539 32.8733 38.2088 35.4338 36.9554 35.4338C36.6513 35.4338 36.4043 34.8731 36.4043 34.4466C36.4043 34.212 36.5563 34.0471 37.0884 33.9332C39.9692 33.287 39.3322 31.1598 41.792 31.1598C42.1818 31.1518 42.5691 31.2238 42.9292 31.3713C43.2893 31.5188 43.6144 31.7385 43.8838 32.0165C44.1532 32.2945 44.3611 32.6247 44.4941 32.9861C44.6272 33.3476 44.6826 33.7324 44.6568 34.1161C44.6568 36.2958 41.5107 39.001 41.041 39.001C40.6564 39.001 40.2368 38.4576 40.2368 38.0933C40.2368 37.9816 40.2862 37.8324 40.6229 37.699C42.2275 37.0701 43.148 35.6167 43.148 34.8761C43.1536 34.8339 43.1499 34.7911 43.1371 34.7505C43.1242 34.7098 43.1026 34.6724 43.0737 34.6409C43.0448 34.6093 43.0093 34.5843 42.9696 34.5676C42.93 34.5509 42.8871 34.5428 42.8439 34.5441C42.5597 34.5441 41.3412 37.286 39.9821 37.286C39.0442 37.286 38.0895 36.4435 38.0895 36.0492C38.0895 35.3866 40.8046 34.1648 40.8046 33.2406C40.8046 32.8913 40.6366 32.8763 40.5005 32.8763M42.3065 31.8516C42.0717 31.8516 41.8201 32.0345 41.8201 32.4835C41.8279 32.6749 41.8887 32.8605 41.9959 33.0203C42.1031 33.18 42.2526 33.3078 42.4282 33.3897C42.5762 33.4714 42.7421 33.5165 42.9116 33.5209C43.3965 33.5209 43.7842 33.3897 43.7842 32.9895C43.7842 32.4835 43.0302 31.8516 42.3104 31.8516" fill="white"/>
<path id="Path 11131" d="M11.0304 12.7272C11.0298 12.858 11.0685 12.9861 11.1418 13.0952C11.215 13.2042 11.3194 13.2894 11.4418 13.34C11.5641 13.3905 11.6989 13.4041 11.8291 13.3791C11.9594 13.354 12.0791 13.2915 12.1732 13.1993C12.2673 13.1071 12.3316 12.9894 12.3579 12.8612C12.3842 12.733 12.3713 12.5999 12.3209 12.4789C12.2705 12.3579 12.1848 12.2544 12.0747 12.1814C11.9646 12.1085 11.835 12.0694 11.7023 12.0691C11.5251 12.0699 11.3554 12.1393 11.2297 12.2624C11.1039 12.3856 11.0324 12.5525 11.0304 12.7272ZM10.1623 11.2393C10.1617 11.3701 10.2005 11.4981 10.2738 11.6071C10.347 11.7161 10.4514 11.8012 10.5738 11.8516C10.6961 11.902 10.8309 11.9155 10.961 11.8903C11.0912 11.8651 11.2108 11.8024 11.3047 11.7101C11.3986 11.6178 11.4626 11.5 11.4886 11.3718C11.5146 11.2436 11.5014 11.1106 11.4507 10.9898C11.4 10.869 11.3141 10.7657 11.2038 10.6931C11.0935 10.6205 10.9638 10.5818 10.8312 10.5819C10.6546 10.5831 10.4855 10.6527 10.3604 10.7756C10.2352 10.8986 10.1641 11.0651 10.1623 11.2393ZM9.55956 15.7659C9.24046 15.8479 8.95493 16.0253 8.74219 16.2737C8.52946 16.5221 8.39997 16.8294 8.37151 17.1534C8.37121 17.287 8.39877 17.4192 8.45246 17.5418C8.50616 17.6644 8.58485 17.7749 8.68364 17.8663C8.78244 17.9576 8.89923 18.028 9.02677 18.073C9.15431 18.118 9.28986 18.1367 9.42502 18.1278C9.65429 18.1416 9.88209 18.0833 10.0757 17.9614C9.87371 17.7791 9.71284 17.557 9.60351 17.3095C9.49417 17.0619 9.4388 16.7945 9.44098 16.5245C9.43539 16.2663 9.47552 16.0091 9.55956 15.7644M5.45497 15.9976C5.44372 16.0798 5.43915 16.1627 5.44129 16.2457C5.44129 17.0192 5.85859 17.451 6.40967 17.451C6.67889 17.4258 6.93897 17.3415 7.17076 17.2041C7.40254 17.0667 7.60013 16.8798 7.74898 16.6572C7.55039 16.6908 7.34922 16.7073 7.14773 16.7067C6.82882 16.7295 6.50898 16.6772 6.21464 16.554C5.92029 16.4308 5.6599 16.2396 5.45497 15.9976ZM4.86816 17.4667C4.86816 18.7215 5.2543 19.3174 5.94296 19.3174C6.74915 19.1832 7.48921 18.7941 8.0515 18.2088C7.52615 18.3504 6.98644 18.4339 6.44235 18.4576C6.11212 18.4547 5.78939 18.3602 5.51102 18.185C5.23266 18.0098 5.00989 17.7609 4.86816 17.4667ZM9.20687 10.8608C9.30593 10.5518 9.35718 10.2299 9.35889 9.90584C9.35889 9.1113 8.98948 7.90749 7.85159 7.90749C7.70241 7.90656 7.55456 7.93513 7.41677 7.99152C7.27899 8.04791 7.15407 8.13097 7.0494 8.23579C6.94473 8.34062 6.86244 8.46508 6.80739 8.60181C6.75234 8.73854 6.72566 8.88477 6.72891 9.03184C6.72891 10.3383 8.05378 10.863 9.20915 10.863M7.7847 15.0246C7.47146 14.9731 7.18569 14.817 6.97533 14.5824C6.76496 14.3478 6.6428 14.049 6.62934 13.7361C6.62934 13.4071 6.87941 12.9955 7.0664 12.9955C7.13177 12.9955 7.16673 13.0443 7.18118 13.159C7.22219 13.4852 7.34899 13.7951 7.54899 14.0581C7.74899 14.3211 8.01525 14.5279 8.32134 14.6581C8.37227 14.6911 8.40495 14.7076 8.40495 14.7428C8.40495 14.8552 8.08647 15.0216 7.78394 15.0216M9.32393 13.0083C9.4425 13.1627 9.76251 13.3538 9.76251 13.473C9.76251 13.7031 9.62645 13.9977 9.35813 13.9977C8.77133 13.9977 8.30462 13.1207 8.30462 12.6283C8.30462 12.3119 8.48704 12.2782 8.73864 12.2782C8.82704 12.2719 8.91504 12.2949 8.98872 12.3434C9.14074 12.4259 9.14074 12.7549 9.32393 13.006M5.3896 15.0531C5.358 15.1085 5.34101 15.1709 5.34019 15.2345C5.34886 15.3146 5.38501 15.3894 5.44264 15.4465C5.50028 15.5036 5.57596 15.5396 5.65716 15.5486C5.7917 15.5486 5.87607 15.5148 5.94448 15.5148C6.3443 15.5148 6.79428 15.7944 7.45026 15.7944C7.94383 15.7713 8.42532 15.6361 8.85722 15.3994C9.28651 15.1536 9.65772 14.8203 9.94608 14.4218C10.2344 14.0233 10.4333 13.5688 10.5295 13.0885C10.5295 12.7729 10.2718 12.8157 10.0612 12.5248C9.85068 12.234 9.92821 11.9851 9.79139 11.8502C9.71538 11.7753 9.47367 11.7693 9.17342 11.7363C9.05074 11.7232 8.9274 11.7172 8.80401 11.7183C8.11737 11.6964 7.44 11.8792 6.86041 12.243C5.4086 13.1575 5.62295 14.6693 5.38808 15.0516M10.9475 14.3905C10.4902 14.9238 10.226 15.5921 10.1965 16.2899C10.1753 16.4892 10.1953 16.6907 10.2551 16.8822C10.315 17.0737 10.4135 17.2513 10.5449 17.4043C10.6762 17.5573 10.8375 17.6824 11.0192 17.7722C11.2009 17.8621 11.3991 17.9147 11.602 17.9269C11.7773 17.9196 11.9491 17.8765 12.1066 17.8003C12.2641 17.7241 12.4039 17.6166 12.5171 17.4844C12.6303 17.3523 12.7145 17.1984 12.7644 17.0325C12.8142 16.8667 12.8287 16.6924 12.8067 16.5208C12.7572 16.0202 12.5521 15.547 12.2194 15.1658C11.8868 14.7847 11.4428 14.5141 10.9483 14.3912M7.36588 11.2213C7.04638 11.4431 6.66859 11.5688 6.27817 11.5834C6.10759 11.588 5.93783 11.5583 5.77924 11.4962C5.62065 11.4341 5.47653 11.3408 5.35565 11.222C5.23477 11.1033 5.13966 10.9615 5.07611 10.8053C5.01256 10.6491 4.9819 10.4818 4.98598 10.3136C4.98329 10.0333 5.06664 9.75868 5.22509 9.52591C5.38354 9.29314 5.60967 9.11307 5.87379 9.00935C5.86119 9.10225 5.8561 9.196 5.85859 9.28969C5.84397 9.73379 5.9861 10.1691 6.26071 10.5214C6.53533 10.8737 6.9254 11.1211 7.36436 11.2213" fill="white"/>
<path id="Path 11132" d="M36.8862 16.7073C36.8859 16.8444 36.9268 16.9784 37.0038 17.0925C37.0808 17.2066 37.1904 17.2956 37.3187 17.3483C37.447 17.4009 37.5883 17.4149 37.7246 17.3883C37.861 17.3617 37.9862 17.2959 38.0846 17.1991C38.183 17.1023 38.25 16.9789 38.2773 16.8445C38.3045 16.7101 38.2907 16.5708 38.2376 16.4441C38.1844 16.3175 38.0944 16.2092 37.9789 16.1331C37.8634 16.0569 37.7275 16.0162 37.5885 16.0162C37.403 16.0178 37.2255 16.0911 37.0942 16.2203C36.9628 16.3495 36.8882 16.5244 36.8862 16.7073ZM36.9356 18.7881C36.9353 18.9417 36.9812 19.0919 37.0675 19.2198C37.1537 19.3477 37.2765 19.4474 37.4203 19.5065C37.5641 19.5655 37.7224 19.5812 37.8752 19.5515C38.028 19.5219 38.1685 19.4482 38.2788 19.3398C38.3892 19.2314 38.4644 19.0932 38.4951 18.9426C38.5258 18.792 38.5105 18.6358 38.4512 18.4938C38.3918 18.3518 38.2912 18.2304 38.1618 18.1448C38.0325 18.0592 37.8803 18.0134 37.7246 18.0131C37.6212 18.0129 37.5187 18.0328 37.4231 18.0716C37.3275 18.1105 37.2406 18.1675 37.1673 18.2395C37.0941 18.3114 37.0359 18.3969 36.9961 18.4911C36.9564 18.5852 36.9358 18.6861 36.9356 18.7881ZM34.526 20.1928C34.5262 20.4181 34.5941 20.6383 34.7211 20.8256C34.8482 21.0129 35.0287 21.1588 35.2398 21.2449C35.4509 21.331 35.6832 21.3535 35.9073 21.3094C36.1314 21.2654 36.3371 21.1568 36.4986 20.9974C36.6602 20.8381 36.7701 20.6351 36.8146 20.4141C36.8592 20.1931 36.8362 19.964 36.7488 19.7559C36.6613 19.5477 36.5132 19.3698 36.3232 19.2447C36.1332 19.1195 35.9099 19.0527 35.6814 19.0527C35.3751 19.0535 35.0816 19.1739 34.8651 19.3876C34.6485 19.6012 34.5266 19.8907 34.526 20.1928ZM35.144 17.8624C35.1443 17.9927 35.1838 18.1201 35.2574 18.2283C35.331 18.3366 35.4355 18.4209 35.5576 18.4706C35.6798 18.5203 35.8142 18.5333 35.9438 18.5078C36.0734 18.4823 36.1924 18.4195 36.2859 18.3273C36.3793 18.2352 36.443 18.1178 36.4689 17.99C36.4947 17.8621 36.4816 17.7296 36.4312 17.6092C36.3807 17.4887 36.2952 17.3857 36.1855 17.3131C36.0757 17.2405 35.9466 17.2016 35.8144 17.2013C35.6367 17.2017 35.4665 17.2715 35.3408 17.3954C35.2152 17.5193 35.1444 17.6872 35.144 17.8624ZM32.9496 19.1861C32.95 19.3167 32.9897 19.4442 33.0636 19.5526C33.1376 19.6609 33.2424 19.7452 33.3649 19.7948C33.4874 19.8444 33.622 19.857 33.7518 19.8312C33.8816 19.8053 34.0007 19.7421 34.0941 19.6495C34.1875 19.5569 34.2509 19.4391 34.2764 19.311C34.3019 19.1828 34.2882 19.0501 34.2373 18.9296C34.1863 18.8091 34.1002 18.7062 33.9899 18.6339C33.8797 18.5617 33.7501 18.5232 33.6177 18.5235C33.4401 18.5243 33.27 18.5945 33.1448 18.7187C33.0196 18.8429 32.9494 19.011 32.9496 19.1861ZM34.6735 15.3206C34.6732 15.53 34.7359 15.7347 34.8535 15.9089C34.9712 16.0831 35.1386 16.219 35.3346 16.2994C35.5306 16.3798 35.7464 16.401 35.9547 16.3605C36.1629 16.3199 36.3543 16.2194 36.5046 16.0716C36.6549 15.9238 36.7574 15.7353 36.7991 15.5301C36.8408 15.3248 36.8199 15.112 36.7389 14.9185C36.658 14.725 36.5207 14.5595 36.3443 14.4429C36.168 14.3264 35.9606 14.264 35.7483 14.2637C35.4642 14.2651 35.1921 14.3768 34.9909 14.5746C34.7897 14.7725 34.6757 15.0405 34.6735 15.3206ZM35.9307 13.2886C35.9306 13.4131 35.9679 13.535 36.038 13.6386C36.1081 13.7423 36.2078 13.8231 36.3245 13.8709C36.4412 13.9186 36.5697 13.9311 36.6936 13.9069C36.8175 13.8826 36.9314 13.8226 37.0207 13.7345C37.11 13.6464 37.1709 13.5342 37.1955 13.412C37.2201 13.2897 37.2074 13.1631 37.159 13.048C37.1105 12.9329 37.0286 12.8346 36.9235 12.7655C36.8184 12.6963 36.6948 12.6595 36.5685 12.6597C36.3994 12.6599 36.2373 12.7262 36.1177 12.8441C35.9982 12.962 35.9309 13.1218 35.9307 13.2886ZM32.9032 14.8739C32.9035 14.9977 32.9411 15.1187 33.0111 15.2215C33.0812 15.3243 33.1806 15.4043 33.2968 15.4513C33.413 15.4984 33.5407 15.5104 33.6638 15.4858C33.7869 15.4613 33.8998 15.4012 33.9883 15.3134C34.0768 15.2255 34.1369 15.1137 34.1609 14.9921C34.1849 14.8705 34.1718 14.7447 34.1233 14.6304C34.0747 14.5162 33.9929 14.4188 33.8881 14.3504C33.7834 14.2821 33.6605 14.2459 33.5349 14.2465C33.4516 14.2467 33.3692 14.2631 33.2923 14.2947C33.2155 14.3264 33.1457 14.3727 33.0871 14.431C33.0284 14.4892 32.9819 14.5584 32.9504 14.6344C32.9188 14.7104 32.9028 14.7918 32.9032 14.8739ZM32.8166 17.0206C32.816 17.2201 32.8754 17.4151 32.9873 17.5812C33.0992 17.7473 33.2586 17.8769 33.4453 17.9536C33.6319 18.0303 33.8375 18.0506 34.0359 18.012C34.2342 17.9734 34.4166 17.8776 34.5597 17.7368C34.7029 17.5959 34.8004 17.4164 34.84 17.2208C34.8795 17.0253 34.8594 16.8225 34.782 16.6383C34.7047 16.4541 34.5736 16.2966 34.4055 16.1859C34.2373 16.0751 34.0396 16.0161 33.8374 16.0162C33.7032 16.0153 33.5702 16.0407 33.446 16.0909C33.3218 16.1411 33.209 16.2151 33.1141 16.3085C33.0191 16.402 32.9439 16.5132 32.8928 16.6356C32.8418 16.7579 32.8158 16.8883 32.8166 17.0206ZM30.708 18.0775C30.7077 18.2637 30.7634 18.4457 30.8681 18.6006C30.9728 18.7556 31.1217 18.8764 31.296 18.9478C31.4703 19.0192 31.6622 19.038 31.8474 19.0018C32.0326 18.9656 32.2027 18.8761 32.3362 18.7445C32.4698 18.6129 32.5607 18.4452 32.5975 18.2626C32.6344 18.0801 32.6155 17.8908 32.5432 17.7189C32.4709 17.5469 32.3485 17.3999 32.1915 17.2966C32.0345 17.1933 31.85 17.1382 31.6612 17.1383C31.4093 17.1407 31.1683 17.2404 30.9901 17.416C30.8119 17.5916 30.7106 17.8291 30.708 18.0775ZM31.2751 15.7494C31.2746 15.8802 31.3135 16.0083 31.3869 16.1173C31.4603 16.2263 31.5649 16.3114 31.6873 16.3618C31.8098 16.4122 31.9447 16.4256 32.0749 16.4003C32.2051 16.3751 32.3247 16.3123 32.4187 16.2199C32.5127 16.1275 32.5768 16.0097 32.6028 15.8814C32.6289 15.7531 32.6157 15.6201 32.5651 15.4992C32.5144 15.3782 32.4285 15.2748 32.3182 15.2021C32.2079 15.1293 32.0782 15.0905 31.9455 15.0905C31.7684 15.0915 31.5988 15.1612 31.4733 15.2844C31.3479 15.4077 31.2766 15.5747 31.2751 15.7494ZM37.1537 20.8359C37.1603 20.6736 37.2298 20.5199 37.3479 20.4065C37.466 20.2931 37.6236 20.2287 37.7884 20.2265C37.9151 20.2263 38.0389 20.2633 38.1441 20.3329C38.2493 20.4025 38.331 20.5015 38.3788 20.6171C38.4267 20.7328 38.4384 20.8599 38.4125 20.9822C38.3866 21.1044 38.3243 21.2163 38.2335 21.3034C38.1428 21.3906 38.0277 21.449 37.9031 21.4713C37.7784 21.4935 37.6499 21.4786 37.5339 21.4284C37.418 21.3782 37.3198 21.295 37.2521 21.1894C37.1844 21.0839 37.1501 20.9608 37.1537 20.8359Z" fill="white"/>
<path id="Path 11133" d="M37.5859 39.8275C37.668 39.8275 37.7698 39.8748 37.7698 40.1746C37.7607 40.4261 37.685 40.6709 37.5504 40.8847C37.4157 41.0985 37.2267 41.2739 37.0021 41.3934C36.462 41.747 35.8261 41.9313 35.1778 41.9218C35.32 41.535 35.3993 41.1285 35.4127 40.7173C35.4093 40.5918 35.3983 40.4667 35.38 40.3425H35.5982C36.2969 40.3561 36.9859 40.1789 37.5889 39.8306M37.725 38.195C37.7854 38.1311 37.8314 38.0554 37.86 37.9727C37.8886 37.89 37.899 37.8022 37.8907 37.7153V37.336C37.8907 36.8563 37.1541 36.5759 36.1485 36.5759C34.9255 36.5759 34.2733 37.1216 34.2733 37.3525V38.111C34.2733 38.4251 35.0114 38.7399 35.9151 38.7399C36.5641 38.7695 37.2035 38.577 37.725 38.195ZM38.593 38.3749C37.7026 39.0824 36.5903 39.4621 35.4469 39.449C34.9522 39.4417 34.4629 39.3462 34.0027 39.1672C33.8347 39.1672 33.6493 39.3328 33.4653 39.5465C32.9114 40.178 32.5884 40.9746 32.5479 41.8087C32.5513 41.9937 32.5933 42.176 32.6712 42.3443C32.7492 42.5126 32.8614 42.6633 33.0009 42.787C33.1404 42.9108 33.3043 43.0049 33.4822 43.0635C33.6602 43.1221 33.8485 43.1441 34.0354 43.1279C37.1708 43.1279 39.5082 41.1993 39.5082 39.6289C39.5082 38.7392 38.9761 38.3741 38.5862 38.3741" fill="white"/>
<path id="Path 11134" d="M39.1788 24.4866C39.1788 24.8989 39.3133 25.3771 39.7321 25.3771C40.0841 25.3771 40.3851 24.8524 40.3851 24.2707C40.3851 23.6119 40.268 23.0969 40.268 22.8346C40.268 22.7184 40.3189 22.6689 40.3851 22.6689C40.6374 22.6862 40.8731 23.3638 41.1452 23.3638C41.4492 23.3638 41.8939 22.8166 42.0778 22.8166C42.1288 22.8166 42.144 22.8818 42.144 22.899C42.144 23.1456 41.7639 23.6913 41.7639 23.9057C41.7639 24.0871 42.7353 24.1193 42.7353 24.288C42.7353 24.5353 41.716 24.5353 41.2296 24.7497C40.7613 24.9476 40.4755 25.1957 40.4755 25.5263C40.4755 25.8568 40.8123 25.9213 41.2812 25.9213C42.0294 25.8449 42.759 25.6442 43.4392 25.3276C43.4501 25.3269 43.461 25.3286 43.4712 25.3324C43.4814 25.3363 43.4906 25.3422 43.4983 25.3499C43.5059 25.3576 43.5118 25.3668 43.5155 25.3769C43.5192 25.3871 43.5207 25.3979 43.5198 25.4086C43.5198 25.575 42.9527 26.1177 42.9527 26.3688C42.9527 26.6484 43.9926 26.9737 43.9736 27.1423C43.9584 27.191 43.8915 27.2083 43.7744 27.2083C43.5905 27.2083 43.3062 27.1588 43.0858 27.1588C43.032 27.1508 42.9772 27.154 42.9249 27.1682C42.8725 27.1824 42.8237 27.2073 42.7817 27.2413C42.6646 27.3724 42.8159 28.2494 42.581 28.2494C42.3621 28.2494 41.7936 26.3006 40.5067 26.3006C40.3228 26.3006 40.1882 26.4505 40.1882 26.6986C40.2495 27.0715 40.3963 27.4258 40.6173 27.7344C40.8383 28.043 41.1278 28.2978 41.4637 28.4796C41.7449 28.6594 42.2131 28.8438 42.2131 28.9428C42.2131 29.1399 41.149 28.9593 41.149 29.2883C41.149 29.5882 41.2812 30.0379 41.2812 30.2965C41.2812 30.379 41.2645 30.4779 41.1627 30.4779C40.9635 30.4779 40.4786 29.5717 40.2422 29.5717C40.0423 29.5717 39.606 30.1151 39.4205 30.1151C39.3963 30.1128 39.374 30.1012 39.3583 30.0829C39.3427 30.0645 39.335 30.0408 39.3369 30.0169C39.3369 29.6354 39.9579 28.7794 39.9579 27.9354C39.9579 27.5396 39.907 26.6821 39.4205 26.6821C39.0199 26.6821 38.5661 27.3072 38.3655 27.9354C38.2484 28.2982 38.3328 29.7043 38.0614 29.7043C37.8083 29.7043 37.8744 28.7629 37.5407 28.7629C37.2937 28.7629 36.7563 29.2126 36.5724 29.2126C36.5567 29.2143 36.5409 29.2098 36.5285 29.2002C36.5162 29.1905 36.5081 29.1764 36.5062 29.1609C36.5062 28.963 36.9897 28.3191 36.9897 28.1865C36.9897 27.9384 35.8852 27.9061 35.8852 27.7082C35.8852 27.5898 36.3193 27.5104 36.7214 27.4421C37.5727 27.2922 38.8284 26.6858 38.8284 25.8261C38.8284 24.8674 37.8912 24.4559 37.2732 24.0586C36.9547 23.8607 36.6043 23.6958 36.6043 23.5639C36.6043 23.432 37.0056 23.4327 37.1744 23.4327C37.4245 23.4327 37.6715 23.4147 37.6715 23.2153C37.6715 23.0654 37.6388 22.7701 37.6388 22.5407C37.6388 22.3766 37.6563 22.2409 37.7255 22.2409C37.9725 22.2409 38.3267 23.0482 38.4932 23.0482C38.76 23.0482 39.1324 22.3901 39.381 22.3901C39.4646 22.3901 39.4988 22.4403 39.4988 22.588C39.4988 23.1974 39.1803 23.8915 39.1803 24.4866M31.1931 19.6497C31.377 21.0521 33.2902 20.343 33.2902 22.0408C33.2902 22.2881 33.2233 22.6524 33.2233 22.9657C33.2233 23.3315 33.256 23.6448 33.5372 23.6448C33.8185 23.6448 33.8892 23.447 33.8892 23.1831C33.8892 22.9193 33.8223 22.588 33.8223 22.4066C33.8118 22.3148 33.8216 22.2219 33.8509 22.1342C33.8803 22.0465 33.9285 21.9661 33.9923 21.8985C34.0562 21.8309 34.1341 21.7778 34.2207 21.7427C34.3073 21.7076 34.4007 21.6914 34.4942 21.6952C35.1289 21.6952 35.6169 22.3399 36.5716 22.3399C36.3527 23.3975 34.1393 23.1142 34.1393 24.2707C34.1393 24.8487 34.7261 24.9813 35.1107 24.9813C35.4657 24.9813 35.5819 24.9311 35.5819 24.635C35.5819 24.4694 35.5493 24.2887 35.5493 24.1695C35.5492 24.1523 35.5525 24.1352 35.5592 24.1192C35.5658 24.1033 35.5756 24.0888 35.588 24.0766C35.6004 24.0644 35.6151 24.0547 35.6313 24.0482C35.6474 24.0416 35.6648 24.0383 35.6823 24.0384C36.0487 24.0384 37.8554 25.3936 37.8554 25.8066C37.8554 26.1851 35.9483 26.5667 35.3965 26.5667C35.3708 26.57 35.3447 26.5679 35.3199 26.5603C35.2952 26.5527 35.2724 26.54 35.2532 26.5228C35.2339 26.5057 35.2187 26.4847 35.2085 26.4612C35.1984 26.4377 35.1935 26.4123 35.1943 26.3868C35.1943 26.2698 35.4786 25.9228 35.4786 25.7241C35.4786 25.5742 35.227 25.4775 34.5581 25.4775C34.2396 25.4775 34.0055 25.5105 34.0055 25.7579C34.0055 26.2076 34.7435 26.7488 34.7435 27.1603C34.7435 27.4909 34.5414 27.6918 34.0055 27.6918C33.5494 27.6918 32.8653 27.3417 32.8653 26.7653C32.8653 26.3021 33.3503 25.8403 33.3503 25.56C33.3503 25.4768 33.2872 25.3464 33.0842 25.3464C32.4663 25.3464 32.2975 26.9632 30.1016 27.1453C30.3134 26.9849 30.4833 26.777 30.5973 26.5388C30.7113 26.3006 30.7659 26.0391 30.7568 25.7759C30.7568 25.4288 30.6732 25.147 30.6732 24.7692C30.6732 24.273 30.9065 24.0241 31.2402 24.0241C31.8612 24.0241 32.1622 24.8831 32.5666 24.8831C32.6926 24.8754 32.8105 24.8193 32.8951 24.7268C32.9796 24.6343 33.0241 24.5128 33.0189 24.3884C33.0189 23.1329 30.5736 23.3158 30.5736 21.5491C30.6184 20.876 30.8307 20.2242 31.1916 19.6512" fill="white"/>
<path id="Path 11135" d="M34.3727 30.3798C34.3704 30.4336 34.3793 30.4872 34.3987 30.5375C34.4181 30.5878 34.4477 30.6336 34.4857 30.6723C34.5237 30.7109 34.5692 30.7415 34.6196 30.7622C34.6699 30.7829 34.724 30.7934 34.7786 30.7928C34.8405 30.7894 34.901 30.7738 34.9566 30.7468C35.0122 30.7198 35.0617 30.6819 35.1021 30.6356C35.1425 30.5892 35.173 30.5353 35.1917 30.4771C35.2104 30.4188 35.217 30.3574 35.2111 30.2966C35.2111 29.9518 34.8941 29.4721 34.5931 29.4721C34.4571 29.4721 34.5065 29.6707 34.473 29.8851C34.4563 30.0507 34.3727 30.2486 34.3727 30.3813M33.5031 28.1873C34.2236 28.2741 34.8903 28.6077 35.3866 29.13C35.8829 29.6523 36.1773 30.33 36.2183 31.0447C36.2355 31.2474 36.2105 31.4516 36.1448 31.6445C36.0791 31.8374 35.9741 32.015 35.8361 32.1664C35.6982 32.3177 35.5304 32.4397 35.3429 32.5247C35.1554 32.6097 34.9522 32.656 34.7459 32.6607C34.5462 32.6691 34.347 32.6357 34.1613 32.5627C33.9757 32.4896 33.8078 32.3786 33.6688 32.237C33.5297 32.0954 33.4227 31.9263 33.3547 31.741C33.2867 31.5556 33.2594 31.3581 33.2744 31.1616C33.2744 30.4675 33.8224 29.7434 33.8224 29.0291C33.8236 28.7203 33.7103 28.4217 33.5039 28.1895M31.2783 30.9967C31.3479 31.0598 31.4034 31.1367 31.4409 31.2223C31.4785 31.3079 31.4974 31.4004 31.4965 31.4936C31.4965 31.7402 31.3779 32.0041 31.3779 32.2859C31.3762 32.3825 31.394 32.4785 31.4303 32.5683C31.4667 32.658 31.5208 32.7397 31.5895 32.8086C31.6582 32.8775 31.7401 32.9321 31.8305 32.9694C31.9209 33.0067 32.018 33.0259 32.1159 33.0258C32.2211 33.0271 32.3255 33.0075 32.4227 32.9681C32.52 32.9287 32.6082 32.8703 32.6821 32.7964C32.7559 32.7226 32.8138 32.6348 32.8524 32.5383C32.8909 32.4418 32.9093 32.3386 32.9065 32.235C32.8527 31.8598 32.6523 31.5203 32.3481 31.2889C32.0438 31.0575 31.6599 30.9526 31.2783 30.9967ZM36.8233 29.9413C36.9276 30.0973 36.9851 30.2792 36.989 30.466C36.989 30.93 36.672 31.358 36.672 31.8347C36.6707 31.9695 36.6974 32.1032 36.7506 32.2274C36.8037 32.3517 36.8822 32.4638 36.9811 32.5569C37.08 32.65 37.1973 32.7221 37.3256 32.7687C37.4539 32.8153 37.5906 32.8355 37.7271 32.8279C37.883 32.8276 38.0372 32.7963 38.1806 32.7357C38.3239 32.6752 38.4533 32.5867 38.5611 32.4756C38.6689 32.3645 38.7528 32.2331 38.8077 32.0892C38.8627 31.9453 38.8876 31.7919 38.8809 31.6383C38.8809 30.7643 38.076 30.0215 36.8233 29.9398M31.6827 29.0628C32.4534 29.1617 32.6359 29.4271 32.6359 29.64C32.6359 30.005 32.3007 30.1197 31.9814 30.1197C31.7481 30.1197 31.482 30.071 31.1939 30.071C30.999 30.059 30.8039 30.0915 30.6238 30.166C30.4438 30.2405 30.2835 30.3549 30.1556 30.5005C30.2928 30.5074 30.4228 30.5631 30.5216 30.6572C30.6204 30.7513 30.6813 30.8775 30.693 31.0124C30.693 31.9704 27.9962 31.1781 27.9962 33.6359C27.9962 34.9409 29.3681 36.3606 31.4455 36.3606C32.5203 36.3606 33.2075 36.015 33.2075 35.617C33.2075 35.3037 32.6359 35.5181 32.6359 35.2557C32.6359 35.1403 32.8365 34.9252 32.8365 34.7423C32.8365 34.6628 32.7704 34.5136 32.6359 34.5136C31.99 34.777 31.3062 34.9384 30.6094 34.9919C29.7056 34.9919 28.8178 34.4814 28.8178 33.7873C28.8178 33.6374 28.8847 33.5542 28.9843 33.5542C29.0839 33.5542 29.2207 33.6224 29.3385 33.6224C29.4358 33.6224 29.4533 33.5542 29.4533 33.3728C29.4533 33.1914 29.4533 32.678 29.7725 32.678C30.0918 32.678 30.693 33.8383 33.0068 33.8383C33.7745 33.8383 35.2636 33.6884 35.8192 33.1937C35.8082 33.7603 35.6835 34.3191 35.4523 34.838C35.2212 35.3568 34.8882 35.8254 34.4724 36.2167C34.0567 36.608 33.5665 36.9142 33.0302 37.1177C32.4938 37.3212 31.9219 37.418 31.3475 37.4025C30.7118 37.4133 30.0805 37.2975 29.4914 37.0621C28.9022 36.8266 28.3672 36.4764 27.9186 36.0322C27.4699 35.5881 27.1167 35.0593 26.8802 34.4774C26.6437 33.8955 26.5287 33.2725 26.5421 32.6457C26.5529 31.3589 27.0808 30.1289 28.01 29.2254C28.9392 28.3219 30.1938 27.8186 31.4987 27.826C32.2338 27.826 32.8563 28.0726 32.8563 28.3859C32.8563 28.8169 31.7671 28.5531 31.685 29.0605" fill="white"/>
<path id="Path 11136" d="M20.8447 10.2027C21.9476 10.2027 22.4508 11.1456 22.4508 12.201C22.4508 12.6613 22.3178 13.3404 22.0989 13.3404C21.8799 13.3404 21.9164 12.9656 21.8822 12.6125C21.8511 12.1688 21.7652 12.0691 21.6131 12.0691C21.3304 12.0691 21.1464 12.7272 21.1464 13.3434C21.1464 13.7242 21.2126 14.1522 21.5128 14.1522C21.6716 14.1481 21.8224 14.083 21.9332 13.9708C21.9197 14.3443 21.7633 14.6989 21.4953 14.9631C21.2273 15.2274 20.8677 15.3817 20.4889 15.3949C19.0174 15.3949 18.4655 13.6964 18.296 12.7032C17.9243 13.1915 17.4445 13.5896 16.8931 13.8672C16.3417 14.1448 15.7332 14.2946 15.1142 14.3051C14.8514 14.3201 14.5884 14.2806 14.342 14.1892C14.0956 14.0978 13.8714 13.9565 13.6838 13.7745C13.4962 13.5924 13.3493 13.3736 13.2527 13.1322C13.156 12.8908 13.1118 12.632 13.1227 12.3727C13.1227 12.0916 13.2246 11.3653 13.5742 11.3653C13.993 11.3653 13.6267 12.7205 14.4468 12.7205C14.6475 12.7205 15.0154 12.5541 15.2145 12.0099C15.3303 11.6973 15.3935 11.3681 15.4015 11.0355C15.4015 10.5857 15.3012 10.3076 14.9645 10.3076C14.6839 10.3353 14.4196 10.4509 14.2104 10.6374C14.363 10.1152 14.6848 9.65657 15.1267 9.33171C15.5685 9.00685 16.1061 8.83361 16.6572 8.83848C17.9791 8.83848 18.6806 9.99356 18.6806 11.2806C18.6818 11.4685 18.6657 11.6561 18.6328 11.8412C19.2013 10.9178 19.9888 10.2064 20.8432 10.2064M19.551 12.1553C19.551 11.8742 19.481 11.8083 19.4149 11.8083C19.2469 11.8083 19.063 12.0054 18.7969 12.4499C18.8296 13.0495 18.93 13.3104 19.101 13.3104C19.2849 13.3104 19.557 12.7302 19.557 12.1553M17.2615 12.8299C17.447 12.8299 17.6819 12.6328 18.1159 12.1553C18.1441 11.9353 18.155 11.7136 18.1486 11.4919C18.1486 11.1636 18.0155 10.8001 17.8149 10.8001C17.3102 10.8001 17.0609 12.1216 17.0609 12.4679C17.0609 12.6643 17.1612 12.8329 17.2615 12.8329M19.9911 14.3006C20.4084 14.3006 20.8789 12.716 20.8789 11.7243C20.8789 11.5092 20.8454 11.2791 20.7459 11.2791C20.3924 11.2791 19.8064 12.9139 19.8064 13.8029C19.8064 14.1514 19.8915 14.3006 19.9918 14.3006M15.8872 13.3928C16.4573 13.3928 17.108 10.3534 17.108 9.84065C17.108 9.71023 17.0586 9.60903 16.9423 9.60903C16.4246 9.60903 15.7033 12.5001 15.7033 13.1455C15.7033 13.2609 15.736 13.3928 15.8872 13.3928Z" fill="white"/>
<path id="Path 11137" d="M17.7155 14.6431C16.9942 14.6431 16.9615 15.5036 16.9615 17.2373C16.4271 16.0972 15.5393 14.8747 14.501 14.8747C13.7964 14.8747 13.5296 15.3394 13.5296 16.1437C13.529 16.3326 13.5451 16.5212 13.5775 16.7074C13.6293 16.5748 13.7252 16.4636 13.8495 16.3917C13.9737 16.3198 14.119 16.2916 14.2616 16.3116C14.6942 16.3619 15.1109 16.5027 15.4839 16.7246C15.8568 16.9466 16.1774 17.2446 16.4241 17.5986C15.8233 17.4736 15.2132 17.3966 14.5998 17.3685C14.2964 17.3543 13.9934 17.4054 13.712 17.5184C13.3536 17.7152 13.0574 18.006 12.8561 18.3586C12.6549 18.7111 12.5565 19.1117 12.5719 19.516C12.574 19.6989 12.591 19.8814 12.6228 20.0617C12.929 19.5002 13.3829 19.0305 13.9367 18.7017C14.4906 18.3729 15.124 18.1972 15.7704 18.193C15.9267 18.1923 16.0828 18.2043 16.2371 18.229C15.7955 18.7332 15.5586 19.3806 15.572 20.0467C15.5553 20.3113 15.4534 20.3285 15.268 20.3285C15.268 20.872 15.705 21.6822 15.705 22.093C15.7087 22.1556 15.6952 22.2181 15.6659 22.2737C15.6366 22.3294 15.5926 22.3762 15.5386 22.4093C15.5386 23.1342 16.2736 23.6641 16.2736 24.1243C16.2788 24.22 16.2486 24.3143 16.1885 24.3897C16.2379 24.6895 17.0504 25.1865 17.1553 25.4391C17.2853 25.7434 17.4297 25.7944 17.5118 25.7944C17.7991 25.7944 18.2484 25.4653 18.2484 25.1662C18.2419 25.1146 18.2252 25.0648 18.1991 25.0197C18.173 24.9745 18.1381 24.9349 18.0963 24.9031C17.803 24.6075 17.5899 24.2438 17.4769 23.8455C17.4029 23.8499 17.3298 23.828 17.2709 23.7837C17.212 23.7394 17.1713 23.6756 17.1561 23.6041C17.0634 23.2608 17.0588 22.6244 16.9281 22.2452C16.7122 22.1949 16.6119 22.114 16.6119 21.6665C16.6119 21.4529 16.7449 20.6096 16.7449 20.312C16.7112 20.3118 16.6779 20.3045 16.6473 20.2906C16.6167 20.2768 16.5894 20.2567 16.5672 20.2317C16.545 20.2067 16.5285 20.1774 16.5186 20.1456C16.5087 20.1139 16.5058 20.0804 16.51 20.0474C16.51 19.5227 17.0421 19.1045 17.1941 18.4299C17.5495 18.6413 17.845 18.938 18.0531 19.2922C18.2612 19.6464 18.3752 20.0467 18.3844 20.456C18.3815 20.773 18.343 21.0887 18.2696 21.3974C18.9728 21.0504 20.0278 20.5384 20.0278 19.4988C20.0278 18.8871 19.742 18.2095 17.8516 17.9449C18.4761 17.7293 19.1328 17.6184 19.7944 17.6166C20.8647 17.6166 21.4842 17.9449 21.6187 18.6892C21.8458 18.3794 21.9801 18.013 22.0063 17.6316C21.9986 17.4407 21.9512 17.2534 21.8671 17.0814C21.783 16.9093 21.664 16.756 21.5174 16.6311C21.3709 16.5062 21.1999 16.4123 21.0151 16.3551C20.8302 16.298 20.6354 16.2788 20.4428 16.2989C19.3811 16.3945 18.3729 16.8018 17.5483 17.4682C17.9823 16.5769 18.2833 16.0493 18.8207 16.0493C18.905 16.052 18.9888 16.0633 19.0708 16.083C18.8701 15.3544 18.1169 14.6431 17.7155 14.6431Z" fill="white"/>
<path id="Path 11138" d="M45.9294 26.5476C46.7655 26.5476 47.4352 27.624 47.4352 28.878C47.4207 29.5945 47.2559 30.3003 46.9511 30.9509C46.6462 31.6015 46.2081 32.1828 45.6641 32.6581C45.6451 30.4326 42.8806 31.141 42.8806 29.5241C42.8723 29.3755 42.8947 29.2267 42.9465 29.0869C42.9984 28.947 43.0785 28.8191 43.1822 28.7108C43.2858 28.6025 43.4107 28.5162 43.5492 28.457C43.6878 28.3979 43.8371 28.3672 43.9881 28.3668C44.2174 28.3536 44.447 28.3867 44.663 28.464C44.8789 28.5414 45.0765 28.6613 45.2438 28.8166C45.0993 28.6793 44.9844 28.5147 44.906 28.3325C44.8276 28.1504 44.7874 27.9545 44.7877 27.7567C44.7763 27.6023 44.7974 27.4472 44.8495 27.3013C44.9017 27.1553 44.9839 27.0215 45.0909 26.9083C45.1979 26.795 45.3275 26.7048 45.4715 26.6433C45.6156 26.5818 45.7709 26.5502 45.9279 26.5506" fill="white"/>
<path id="Path 11139" d="M33.5011 9.65991C33.2663 9.44248 32.9551 9.32343 32.6331 9.32785C32.3315 9.32006 32.0359 9.41165 31.7931 9.58813C31.5502 9.76462 31.374 10.0159 31.2922 10.3023C31.2179 10.1243 31.1782 9.93408 31.1752 9.74161C31.1718 9.52088 31.2149 9.30186 31.3018 9.0984C31.3887 8.89494 31.5174 8.71147 31.6799 8.55959C31.8423 8.4077 32.0349 8.2907 32.2456 8.21599C32.4562 8.14128 32.6803 8.11048 32.9037 8.12554C33.494 8.14538 34.0646 8.34025 34.5409 8.68472C34.7097 8.68472 34.8777 8.51832 35.0107 8.51832C35.1931 8.51832 35.1931 8.8009 35.1931 8.99879C35.2058 9.4233 35.117 9.8448 34.9337 10.2291C34.7503 10.6134 34.4778 10.9497 34.1381 11.2108C33.9626 10.8579 33.6665 10.5774 33.302 10.4185C33.2513 10.3994 33.208 10.3653 33.1779 10.3208C33.1478 10.2764 33.1325 10.2238 33.134 10.1704C33.1479 10.0625 33.1884 9.95958 33.2518 9.87062C33.3153 9.78166 33.3998 9.70933 33.4981 9.65991M30.9722 10.8592C31.1344 11.0409 31.3329 11.1875 31.5552 11.2898C31.7776 11.3921 32.0191 11.4478 32.2644 11.4536C32.4514 11.4536 32.668 11.4064 32.7866 11.4064C32.9348 11.4064 33.0382 11.4709 33.0382 11.5848C32.9995 11.8373 32.868 12.067 32.6688 12.2302C32.8769 12.3113 33.0995 12.3503 33.3232 12.3449C33.5998 12.3553 33.8755 12.308 34.1323 12.2063C34.3891 12.1045 34.6212 11.9505 34.8136 11.7543C35.006 11.5581 35.1542 11.3241 35.2487 11.0676C35.3432 10.8111 35.3817 10.5378 35.3619 10.2656C35.5586 10.5851 35.6692 10.9489 35.6834 11.3224C35.7023 11.6588 35.6482 11.9952 35.5247 12.3093C35.4012 12.6234 35.2111 12.9079 34.9672 13.1437C34.7233 13.3796 34.4312 13.5614 34.1103 13.677C33.7894 13.7925 33.4473 13.8393 33.1066 13.814C32.6575 13.8075 32.2135 13.7194 31.7969 13.5539C31.4815 13.5539 31.4929 14.1783 31.2778 14.1633C30.8932 14.0973 30.5428 13.2541 30.5428 12.3643C30.5298 11.8316 30.6811 11.3075 30.9768 10.8615" fill="white"/>
<path id="Path 11140" d="M16.64 0.364053C16.64 0.265111 16.1353 0.16242 15.4504 0.16242C14.3604 0.16242 14.5132 1.0559 13.6756 1.0559C12.8045 1.0559 13.0211 0.129439 11.9167 0.129439C11.2478 0.129439 10.6245 0.245622 10.6245 0.397784C10.6245 0.59417 11.4104 0.512468 11.4104 1.0559C11.4104 1.63457 9.71918 1.79872 9.71918 2.14427C9.71918 2.25971 9.8522 2.31143 10.0232 2.31143C10.3911 2.31143 10.9764 2.14427 11.3975 2.14427C11.6309 2.14427 11.8498 2.19375 11.8498 2.41037C11.8498 2.82188 10.9445 3.56695 10.9445 3.89676C10.9445 3.9972 11.0266 4.02793 11.1109 4.02793C11.4477 4.02793 12.0162 3.18692 12.5551 3.18692C13.4422 3.18692 12.8546 5.05259 13.3411 5.05259C13.8443 5.05259 13.6269 3.2184 14.3437 3.2184C14.932 3.2184 15.3676 4.49267 15.7681 4.49267C15.7934 4.4921 15.8183 4.48652 15.8414 4.47627C15.8645 4.46601 15.8852 4.45128 15.9024 4.43295C15.9195 4.41463 15.9328 4.39308 15.9413 4.3696C15.9499 4.34612 15.9535 4.32118 15.9521 4.29628C15.9521 3.94848 15.4504 3.23789 15.4504 2.77691C15.4485 2.7177 15.4598 2.6588 15.4833 2.60433C15.5069 2.54985 15.5423 2.5011 15.5869 2.46148C15.6316 2.42187 15.6845 2.39235 15.7419 2.37497C15.7993 2.3576 15.8599 2.3528 15.9194 2.3609C16.304 2.3609 16.8247 2.59551 17.1074 2.59551C17.2078 2.59551 17.3081 2.56328 17.3081 2.4456C17.3081 2.04908 15.8191 1.62108 15.8191 1.10837C15.8191 0.595669 16.6407 0.596419 16.6407 0.366302M20.5743 2.04608C20.5743 2.34591 21.6278 2.98754 22.1143 2.98754C22.397 2.98754 22.4814 2.60826 22.4814 2.21024C22.4814 1.71627 22.2648 1.69903 21.83 1.69903C21.2766 1.69903 20.5743 1.84894 20.5743 2.04608ZM22.315 5.31344C22.315 4.32626 19.5976 2.5243 19.5672 1.74925C19.5715 1.6714 19.6064 1.59827 19.6645 1.54537C20.1319 1.0619 22.0641 0.711852 22.0641 0.294344C22.0641 0.0807173 21.6613 0.0807173 21.4614 0.0807173C19.9046 0.0807173 17.6281 0.644391 17.6281 1.18633C17.6281 1.75 19.6698 3.12246 19.6698 3.79857C19.6698 3.97846 19.5542 4.04442 19.3657 4.04442C18.7987 4.04442 17.5574 3.36981 16.9729 3.36981C16.7061 3.36981 16.6065 3.55196 16.6065 3.81581C16.6035 4.6096 17.5589 6.10873 17.5589 6.55847C17.5589 6.60569 17.5437 6.6739 17.4753 6.6739C17.1713 6.6739 15.7529 5.02486 15.2497 5.02486C15.0643 5.02486 15.0476 5.27521 15.0476 5.63725V6.19718C15.0476 6.57871 15.0308 6.80958 14.8469 6.80958C14.4129 6.80958 14.2091 5.60502 13.7918 5.60502C13.3578 5.60502 13.2712 7.75103 12.8539 7.75103C12.3689 7.75103 12.7877 5.3869 12.3218 5.3869C11.8057 5.3869 11.2158 6.95724 10.8479 6.95724C10.7149 6.95724 10.6822 6.82607 10.6822 6.71063C10.6822 6.23016 10.9665 5.45586 10.9665 4.99188C10.9665 4.76251 10.8996 4.62984 10.699 4.62984C10.1798 4.62984 9.04193 5.45436 8.60866 5.45436C8.53949 5.45436 8.45664 5.42063 8.45664 5.35242C8.45664 4.95665 10.2809 3.70337 10.2809 3.14195C10.2809 2.59701 7.77254 2.96205 7.77254 2.33241C7.77254 1.80772 9.56564 1.25829 9.56564 0.714101C9.56564 0.236627 7.43733 0.020752 6.61718 0.020752C5.62903 0.020752 5.09696 0.135436 5.09696 0.416523C5.09696 0.847524 7.34156 0.978698 7.34156 1.35648C7.34156 1.72227 5.01562 2.6967 5.01562 3.25888C5.01562 3.75359 8.29626 3.28961 8.29626 3.80381C8.29626 4.36299 5.43064 6.79084 5.43064 7.59887C5.43064 7.78251 5.5667 7.86496 5.75217 7.86496C6.62022 7.86496 8.88002 6.22866 9.50103 6.22866C9.71766 6.22866 9.73438 6.49476 9.73438 6.72263C9.73438 7.15438 9.58616 7.81474 9.58616 8.29671C9.58616 8.676 9.68346 8.94059 10.0187 8.94059C10.6397 8.94059 11.2067 7.90094 11.6278 7.90094C12.1599 7.90094 11.8452 10.9569 12.6486 10.9569C13.3327 10.9569 13.6216 7.65359 14.0541 7.65359C14.4866 7.65359 14.8423 8.61003 15.2452 8.61003C15.7468 8.61003 15.5135 6.943 16.0486 6.943C16.6339 6.943 18.3069 8.92485 19.0609 8.92485C19.2958 8.92485 19.3787 8.74421 19.3787 8.51034C19.3787 7.63635 18.1412 5.65599 18.1412 5.02711C18.1412 4.8622 18.1906 4.81573 18.3745 4.81573C19.029 4.81573 20.9384 5.70471 21.8422 5.70471C22.1462 5.70471 22.3271 5.54056 22.3271 5.32244M7.02611 4.35774C6.64715 5.02774 6.03381 5.53878 5.30067 5.79541C5.1342 5.79541 5.08252 5.59903 5.08252 5.41613C5.08052 5.07424 5.1984 4.74218 5.4162 4.47617C5.74364 4.26389 6.13069 4.15896 6.52216 4.17635C6.75552 4.17635 7.02687 4.22657 7.02687 4.35624M19.3315 6.05776C19.3315 6.63643 21.4256 9.45854 21.8277 9.45854C22.1614 9.45854 22.413 8.88063 22.413 8.38591C22.415 8.2583 22.3802 8.13276 22.3127 8.02387C22.0147 7.60786 19.8879 5.95882 19.4159 5.95882C19.3914 5.96147 19.3688 5.97344 19.3531 5.99218C19.3373 6.01093 19.3296 6.03499 19.3315 6.05926" fill="white"/>
<path id="Path 11141" d="M46.2279 1.05605C46.2277 1.13752 46.2521 1.21721 46.2978 1.28506C46.3435 1.3529 46.4087 1.40586 46.4849 1.43724C46.5611 1.46863 46.6451 1.47703 46.7262 1.46139C46.8073 1.44575 46.8818 1.40676 46.9405 1.34936C46.9991 1.29196 47.0392 1.21872 47.0556 1.13887C47.0721 1.05903 47.0642 0.976173 47.0329 0.90076C47.0016 0.825348 46.9484 0.760763 46.8799 0.715161C46.8115 0.669558 46.7308 0.644983 46.6482 0.644539C46.593 0.643739 46.5383 0.653814 46.4871 0.674173C46.4359 0.694533 46.3894 0.724766 46.3503 0.763099C46.3111 0.801432 46.2801 0.847091 46.2591 0.897398C46.2381 0.947704 46.2275 1.00164 46.2279 1.05605ZM43.4983 4.70569C43.4983 3.53412 40.6547 3.23429 40.6547 2.97119C40.6547 2.75757 42.2441 2.39478 43.0628 2.37529C41.8071 0.792953 40.0223 0.956358 40.0223 0.67677C40.0223 0.511865 41.3616 0.179807 42.5999 0.179807C43.6367 0.179807 44.6096 0.410674 44.6096 1.18573C44.6096 1.61748 44.2577 2.06422 44.2577 2.72384C44.2469 2.81382 44.2567 2.90503 44.2861 2.99085C44.3156 3.07667 44.3641 3.15493 44.4281 3.21996C44.4921 3.28499 44.5699 3.33515 44.656 3.3668C44.7421 3.39845 44.8343 3.4108 44.9258 3.40294C45.4465 3.40294 45.5651 2.85576 45.5651 2.27859C45.5651 1.80112 45.4799 1.43908 45.4799 1.20596C45.4717 1.05225 45.4962 0.898542 45.5519 0.754752C45.6076 0.610962 45.6933 0.480288 45.8034 0.371163C45.9134 0.262038 46.0455 0.176886 46.191 0.121203C46.3366 0.0655203 46.4923 0.0405431 46.6482 0.0478837C47.2153 0.0478837 47.3483 0.294491 48.1867 0.294491C48.0134 0.397632 47.8673 0.539635 47.7602 0.708955C47.6531 0.878275 47.588 1.07013 47.5702 1.26893C47.5702 1.96078 48.0195 2.4405 48.0195 3.86018C48.0195 6.46792 45.5423 7.39289 42.5117 7.39289C41.6434 7.39093 40.7765 7.32478 39.9182 7.195C39.7821 7.18001 39.751 7.14553 39.751 7.06308C39.751 6.8502 40.939 6.73327 40.939 5.67713C40.9134 5.3553 40.869 5.03521 40.806 4.71843C40.8057 4.70112 40.8089 4.68393 40.8155 4.66788C40.8221 4.65182 40.8319 4.63724 40.8443 4.625C40.8567 4.61276 40.8715 4.60311 40.8878 4.59662C40.904 4.59014 40.9215 4.58695 40.939 4.58726C41.1906 4.58726 41.6953 5.5452 42.6287 5.5452C42.7443 5.5559 42.8609 5.54158 42.9703 5.50324C43.0797 5.4649 43.1793 5.40346 43.2621 5.32323C43.3449 5.24299 43.4089 5.14589 43.4497 5.03871C43.4906 4.93152 43.5071 4.81685 43.4983 4.70269M46.3282 3.03341C46.3282 4.50181 45.242 5.62691 43.2794 5.94098C43.4976 5.95597 43.6997 5.95597 43.9004 5.95597C46.1899 5.95597 47.0313 4.93506 47.0313 4.07456C47.0428 3.8497 46.9806 3.62717 46.854 3.43983C46.7274 3.25248 46.5431 3.10951 46.3282 3.03341Z" fill="white"/>
<path id="Path 11142" d="M45.1767 24.3203C45.4576 23.5087 45.845 22.7368 46.329 22.0244C45.7779 21.744 44.3223 21.1489 44.3223 20.1737C44.3223 19.0358 45.7605 18.1454 46.0615 18.1454C46.1914 18.1454 46.2294 18.2578 46.2294 18.4752C46.2294 19.0696 45.9436 20.0275 45.9436 20.538C45.9436 21.0005 46.2477 21.4472 46.5122 21.4472C46.798 21.4472 47.5839 20.4555 47.5839 19.4811C47.6003 18.9168 47.3987 18.3675 47.02 17.9442C46.6412 17.5209 46.1136 17.2552 45.5438 17.2009C45.0938 17.2009 44.2737 17.9317 42.346 17.9317C38.7469 17.9317 37.9268 14.4088 37.9268 12.8782C37.9268 12.8107 37.9404 12.7935 37.9594 12.7935C38.4214 13.1037 38.9742 13.2549 39.5321 13.2237C40.1204 13.2237 40.6563 13.0738 41.5084 13.0738C43.512 13.0738 44.4037 14.4418 45.6419 16.1935C46.3929 16.6545 48.186 17.3988 48.186 19.4961C48.186 21.3468 46.1892 22.3699 45.7072 24.351C46.4765 24.2678 46.9303 22.9134 47.717 22.9134C48.1183 22.9134 48.3023 23.2289 48.3023 23.7236C48.2763 24.1979 48.155 24.6623 47.9454 25.0899C47.7358 25.5175 47.4422 25.8997 47.0815 26.2144C47.0966 26.1331 47.1022 26.0504 47.0982 25.9678C47.0982 25.5069 46.9128 24.8435 46.3769 24.8435C45.5408 24.8435 45.2755 25.7355 44.8035 26.4775C44.32 24.794 43.6633 23.2731 42.4943 22.3489C41.3077 21.4105 39.263 21.9194 39.263 20.2029C39.263 19.7412 39.5625 19.0786 39.5625 18.5539C39.5725 18.3835 39.5258 18.2145 39.4295 18.0727C41.0386 18.6686 40.4678 19.7255 41.459 20.8146C42.0739 21.5094 43.7826 22.1713 44.7738 25.0249C44.7926 24.8774 44.8025 24.729 44.8035 24.5804C44.8035 22.1346 41.5259 19.7412 41.2416 18.7495C43.1419 18.9654 43.4816 19.4286 44.3862 21.9044C44.7487 22.6734 45.0134 23.4836 45.1744 24.3165M44.7373 16.3082C44.7373 15.9626 43.8503 15.9334 43.7659 14.9552C43.7492 14.8053 43.699 14.5422 43.5113 14.5422C43.2118 14.5422 43.4459 15.4499 43.1099 15.4499C42.3422 15.4499 42.0899 13.9635 41.8048 13.9635C41.7387 13.9635 41.6597 14.0138 41.6597 14.2116C41.6597 14.393 41.6923 14.5077 41.6923 14.7236C41.6923 14.9395 41.6399 15.0864 41.4407 15.0864C40.9847 15.0864 40.5864 14.0475 40.1987 14.0475C40.1594 14.0436 40.1202 14.055 40.0893 14.0792C40.0583 14.1034 40.0382 14.1386 40.033 14.1772C40.033 14.3758 40.3667 14.7408 40.3667 14.9222C40.3667 15.318 39.2775 15.1029 39.2775 15.4357C39.2775 15.5803 39.4295 15.6321 39.6309 15.6321C39.9829 15.6321 40.5347 15.4822 40.8205 15.4822C40.9885 15.4822 41.2408 15.5159 41.2408 15.7295C41.2408 15.9634 40.6327 16.2602 40.6327 16.4738C40.6327 16.5728 40.7346 16.6237 40.8167 16.6237C41.269 16.6237 42.0694 15.8479 42.641 15.8479C42.7413 15.8479 42.9914 15.8989 42.9914 16.0473C42.9914 16.2625 42.4243 16.641 42.4243 16.9551C42.4243 17.0353 42.4737 17.1364 42.5764 17.1364C42.8804 17.1364 43.2779 16.3606 43.8495 16.3606C44.0646 16.3606 44.3816 16.4416 44.5526 16.4416C44.6857 16.4416 44.7366 16.3606 44.7366 16.3104" fill="white"/>
<path id="Path 11143" d="M32.2592 6.42004C32.529 6.42004 32.5792 7.06541 32.6286 7.44469C32.6628 7.64483 32.6963 7.66207 32.7806 7.66207C32.9828 7.66207 33.2998 6.90126 33.5126 6.90126C33.8326 6.90126 34.6878 7.77675 36.1107 7.77675C36.6319 7.79307 37.1509 7.70393 37.6358 7.5148C38.1207 7.32568 38.5612 7.0406 38.93 6.67713C39.2989 6.31367 39.5883 5.87954 39.7805 5.40151C39.9726 4.92349 40.0634 4.41171 40.0473 3.89775C40.0473 1.49913 38.3386 0.100442 35.9784 0.100442C34.8557 0.100442 34.0341 0.645377 33.5993 0.645377C33.3355 0.659618 32.9296 0 32.7274 0C32.6446 0 32.561 0.161906 32.561 0.445242C32.561 0.625888 32.561 1.2023 32.3588 1.2023C31.9559 1.2023 30.4 0.0667115 30.4 0.477474C30.4 0.856005 31.4368 2.01109 31.4368 2.31016C31.4368 2.60924 30.4144 2.88733 30.4144 3.08821C30.4144 3.45025 31.5044 3.51622 31.5044 3.97645C31.5044 4.43668 30.3643 4.80472 30.3643 5.14802C30.3643 5.42836 31.5044 5.23347 31.5044 5.57977C31.5044 5.92607 30.6683 7.07891 30.6683 7.41246C30.6683 7.49117 30.685 7.49117 30.7527 7.49117C31.0696 7.49117 32.0251 6.41854 32.2584 6.41854M32.7449 3.71335C32.7449 3.53196 32.0905 3.18866 32.0905 2.98552C32.0905 2.95479 32.1231 2.9368 32.1756 2.9368C32.3595 2.9368 32.678 3.00351 32.9281 3.00351C33.1501 3.00351 33.1797 2.0793 33.3462 2.0793C33.4625 2.0793 33.6631 2.95479 33.8509 2.95479C34.0675 2.95479 34.4673 2.70519 34.6376 2.70519C34.6688 2.70519 34.7052 2.72168 34.7052 2.75466C34.7052 2.87009 34.2849 3.31758 34.2849 3.44951C34.2849 3.59942 35.2221 3.77856 35.2221 3.90974C35.2221 4.07539 34.2689 4.05965 34.2689 4.20957C34.2689 4.3265 34.6193 4.78823 34.6193 4.93739C34.6193 4.96963 34.6026 4.98537 34.5684 4.98537C34.4354 4.98537 33.9185 4.756 33.768 4.756C33.581 4.756 33.2846 5.43061 33.1333 5.43061C33.0809 5.43061 33.0512 5.3669 33.0512 5.2807L33.0155 4.62108C33.0155 4.55661 32.9843 4.48691 32.9007 4.48691C32.697 4.48691 32.3124 4.47341 32.1923 4.47341C32.1102 4.47341 32.076 4.45542 32.076 4.42244C32.076 4.29052 32.7464 3.82804 32.7464 3.71335M36.0149 6.85104C34.8413 6.85104 34.0721 6.27087 34.0721 5.97554C34.0694 5.94375 34.0735 5.91177 34.0841 5.88161C34.0946 5.85145 34.1114 5.82377 34.1333 5.80032C34.1552 5.77687 34.1818 5.75815 34.2115 5.74535C34.2411 5.73255 34.2731 5.72594 34.3054 5.72594C34.6733 5.72594 35.4767 6.28661 35.7496 6.28661C35.8158 6.28661 35.8659 6.25813 35.8659 6.15469C35.8659 5.85861 35.5816 5.3639 35.5816 5.11429C35.5816 5.05058 35.6311 5.00186 35.7337 5.00186C36.1852 5.00186 36.8564 5.18475 37.2106 5.18475C37.2296 5.18759 37.2491 5.18618 37.2676 5.18062C37.286 5.17506 37.303 5.16549 37.3172 5.15262C37.3314 5.13975 37.3425 5.12391 37.3497 5.10625C37.3569 5.08859 37.36 5.06957 37.3588 5.05058C37.3588 4.68779 36.2695 3.97645 36.2695 3.76207C36.2695 3.56494 37.6241 3.26586 37.6241 2.95479C37.6241 2.62273 35.7846 2.85285 35.7846 2.53953C35.7846 2.30941 36.135 1.91214 36.135 1.73075C36.135 1.6483 36.0689 1.61532 35.9511 1.61532C35.5259 1.74085 35.0947 1.84517 34.6589 1.92789C34.4916 1.92789 34.2895 1.8949 34.2895 1.66404C34.2895 1.28401 34.9432 0.871746 35.9655 0.871746C37.621 0.871746 38.6084 1.9961 38.6084 3.87676C38.6084 6.25813 36.9202 6.85029 36.0149 6.85029" fill="white"/>
<path id="Path 11144" d="M24.6821 35.4159C24.6803 35.5927 24.6151 35.7631 24.4982 35.8971C24.3888 35.7508 24.2479 35.6303 24.0855 35.5442C23.9232 35.4581 23.7435 35.4087 23.5594 35.3994C21.837 35.3994 22.4877 37.861 20.649 37.861C20.2724 37.8515 19.8968 37.8174 19.5248 37.7591C19.4085 37.7591 19.3408 37.8123 19.3408 37.909C19.3408 38.3385 19.9618 39.3954 21.6842 39.3954C23.4066 39.3954 25.0698 38.3565 25.0698 37.0665C25.066 36.8338 25.0143 36.6042 24.9177 36.3919C24.9655 36.338 25.0248 36.2952 25.0913 36.2666C25.1578 36.238 25.2298 36.2242 25.3024 36.2262C25.5707 36.2262 25.7227 36.526 25.9743 36.526C26.0366 36.5278 26.0985 36.517 26.1564 36.4942C26.2143 36.4715 26.2668 36.4373 26.3107 36.3937C26.3547 36.3502 26.3891 36.2982 26.4119 36.241C26.4347 36.1839 26.4454 36.1227 26.4433 36.0613C26.4424 35.9618 26.4117 35.8649 26.3552 35.7825C26.2987 35.7001 26.2188 35.6359 26.1256 35.5981C26.1964 35.5463 26.2543 35.4791 26.2948 35.4018C26.3353 35.3245 26.3572 35.2391 26.3589 35.1521C26.3612 35.0818 26.349 35.0118 26.3233 34.9462C26.2976 34.8806 26.2587 34.8208 26.2091 34.7703C26.1595 34.7199 26.1001 34.6797 26.0344 34.6523C25.9687 34.625 25.8981 34.6109 25.8268 34.6109C25.7572 34.6096 25.688 34.6233 25.6242 34.651C25.5605 34.6787 25.5035 34.7198 25.4574 34.7713C25.427 34.4775 25.2583 34.1956 24.9398 34.1956C24.8793 34.1945 24.8192 34.206 24.7635 34.2294C24.7078 34.2527 24.6577 34.2874 24.6164 34.3311C24.5752 34.3748 24.5438 34.4265 24.5242 34.483C24.5046 34.5395 24.4973 34.5994 24.5027 34.6589C24.5027 34.9212 24.6867 35.1371 24.6867 35.4159" fill="white"/>
<path id="Path 11145" d="M20.1751 36.045C19.672 36.045 18.9194 35.5136 18.9194 35.2205C18.9242 35.1155 18.9706 35.0166 19.0487 34.9451C19.1268 34.8735 19.2302 34.8352 19.3367 34.8382C19.7578 34.8382 20.5088 35.3517 20.5088 35.7812C20.5088 35.8981 20.4252 36.0465 20.1751 36.0465M15.5035 32.3467C16.8428 32.6727 17.5102 33.3856 17.647 34.2266C17.6897 34.8693 17.9028 35.4896 18.265 36.0255C18.7806 36.5537 19.4825 36.8661 20.2253 36.898C20.8266 36.898 21.3115 36.7031 21.3115 36.1575C21.2388 35.6597 21.0004 35.1999 20.6339 34.8503C20.2674 34.5006 19.7934 34.281 19.2866 34.2258C19.1688 34.2258 19.019 34.2431 18.851 34.2431C18.6711 34.2497 18.494 34.197 18.3478 34.0932C18.0803 33.863 17.9959 32.6233 17.495 31.8812C17.3006 31.5387 17.0118 31.2576 16.662 31.0702C16.3123 30.8829 15.9159 30.7971 15.5187 30.8228C14.9334 30.8228 14.2812 31.1369 14.2812 31.5979C14.2812 31.8812 14.4333 32.0791 15.5043 32.3474" fill="white"/>
<path id="Path 11146" d="M23.9114 30.3297C23.9114 29.5884 22.3532 29.5726 22.3532 28.4498C22.4155 27.9834 22.606 27.5427 22.9043 27.1755C22.9292 27.5334 23.0621 27.8759 23.2858 28.1588C23.5096 28.4417 23.814 28.6521 24.16 28.7631C25.6475 29.3065 25.8497 30.1318 25.8497 31.0118C25.8497 32.4967 24.7947 34.3459 22.0826 34.3459C21.1237 34.3284 20.2067 33.9552 19.5143 33.3008C18.8219 32.6464 18.405 31.7587 18.3467 30.8147C18.3467 30.3687 18.4653 29.8702 18.748 29.8702C18.9996 29.8702 19.0847 30.0711 19.2854 30.2705C19.6498 30.6149 20.0855 30.8773 20.5627 31.0396C21.0398 31.2019 21.547 31.2602 22.0492 31.2104C23.1194 31.2104 23.9084 30.7824 23.9084 30.3334M23.9738 31.5215C23.3991 31.7823 23.1703 31.7389 23.1703 32.3183C23.1703 32.5319 23.1194 32.8108 23.1194 32.9599C23.1194 33.1578 23.1521 33.2725 23.387 33.2725C23.8087 33.1557 24.1841 32.9143 24.4624 32.5807C24.7407 32.2471 24.9087 31.8374 24.9437 31.4068C24.9437 31.1767 24.8107 31.0763 24.6594 31.0763C24.5264 31.0763 24.3751 31.3416 23.9753 31.52M18.634 23.1848C18.634 22.1264 21.1781 21.5658 21.1781 20.2615C21.1644 19.956 21.0843 19.6569 20.9432 19.3845C21.3408 19.562 21.6888 19.8321 21.957 20.1716C22.2253 20.5111 22.4059 20.9098 22.4832 21.3334C22.4832 22.4712 21.2784 22.9989 21.2784 23.7095C21.2784 24.534 22.5706 24.669 22.5706 25.6914C22.5706 26.5339 21.3476 27.5083 21.3476 28.5967C21.346 29.01 21.5018 29.4088 21.7841 29.7142C22.0665 30.0196 22.4549 30.2093 22.8724 30.2457C22.5933 30.3156 22.3073 30.3548 22.0195 30.3627C20.3268 30.3627 18.5861 28.9917 18.5861 27.3539C18.5875 26.9745 18.6667 26.5992 18.819 26.2507C18.9713 25.9023 19.1936 25.5878 19.4724 25.3263C19.8096 25.6627 20.2411 25.8922 20.7114 25.9852C20.9805 25.9852 21.099 25.854 21.099 25.6561C21.099 25.0437 18.637 24.4838 18.637 23.1826" fill="white"/>
<path id="Path 11147" d="M8.91891 31.3392C8.95814 31.6185 9.10663 31.8716 9.33263 32.0443C9.55863 32.217 9.84419 32.2956 10.1282 32.2634C10.322 32.2488 10.5102 32.1922 10.6793 32.0978C10.7346 32.3563 10.8899 32.5835 11.1124 32.7309C11.3348 32.8783 11.6067 32.9343 11.8704 32.8871C12.0129 32.8763 12.1517 32.8371 12.2785 32.7719C12.4052 32.7067 12.5172 32.6168 12.6077 32.5077C12.6982 32.3987 12.7654 32.2726 12.8051 32.1372C12.8448 32.0018 12.8563 31.8599 12.8388 31.72C12.8286 31.5882 12.7947 31.4592 12.7385 31.3392C12.7385 31.3392 12.8221 31.3287 12.8821 31.3167C13.1632 31.2796 13.4194 31.1381 13.5982 30.9211C13.7771 30.704 13.8651 30.4278 13.8444 30.1489C13.8304 29.9581 13.7637 29.7747 13.6516 29.6186C13.5396 29.4624 13.3863 29.3394 13.2085 29.263C13.0307 29.1865 12.8351 29.1594 12.6428 29.1846C12.4505 29.2098 12.2688 29.2864 12.1175 29.4061C12.048 29.1386 11.8799 28.9062 11.646 28.7544C11.4121 28.6026 11.1292 28.5423 10.8526 28.5853C10.5713 28.6269 10.3178 28.776 10.1471 29.0005C9.97642 29.2249 9.90219 29.5066 9.9405 29.7846C9.94973 29.8981 9.97798 30.0093 10.0241 30.1137C10.0241 30.1137 9.92529 30.1271 9.85841 30.1369C9.57692 30.1827 9.32341 30.3318 9.14873 30.5542C8.97406 30.7766 8.89115 31.056 8.91663 31.3362M12.046 30.6856C12.0597 30.8084 12.0362 30.9326 11.9785 31.0423C11.9208 31.152 11.8314 31.2424 11.7216 31.3021C11.6119 31.3618 11.4867 31.3881 11.3618 31.3777C11.2369 31.3673 11.1179 31.3207 11.0198 31.2437C10.9217 31.1667 10.849 31.0628 10.8107 30.9451C10.7725 30.8274 10.7704 30.7012 10.8048 30.5823C10.8392 30.4634 10.9085 30.3573 11.004 30.2772C11.0995 30.1972 11.2169 30.1468 11.3414 30.1324C11.5092 30.1136 11.6777 30.1614 11.8098 30.2651C11.942 30.3689 12.0269 30.5201 12.046 30.6856Z" fill="white"/>
</g>
</g>
</g>
</g>
</svg>
