<svg width="48" height="48" viewBox="0 0 48 48" fill="none" xmlns="http://www.w3.org/2000/svg">
<g clip-path="url(#clip0_7_57)">
<circle opacity="0.5" cx="24" cy="24" r="24" fill="#0F0F0F"/>
<circle opacity="0.6" cx="24" cy="24" r="20" fill="#0F0F0F"/>
<path d="M24.436 17.967C26.4885 18.0468 28.541 18.1203 30.5935 18.2127C31.0784 18.238 31.5611 18.2963 32.0381 18.387C32.5819 18.4725 33.0826 18.7338 33.4639 19.1308C33.8451 19.5277 34.0859 20.0387 34.1494 20.5854C34.4303 22.257 34.5331 23.9536 34.456 25.6468C34.4171 26.8311 34.3027 28.0132 34.1893 29.1933C34.1704 29.6149 34.0513 30.026 33.8419 30.3924C33.6325 30.7588 33.3388 31.0701 32.9851 31.3004C32.5194 31.5658 31.9972 31.7166 31.4617 31.7403C29.3956 31.9396 27.32 32.0251 25.2444 31.9964C23.1625 31.9859 21.0817 31.9229 19.0009 31.8558C18.3216 31.8246 17.6448 31.7545 16.9736 31.6458C16.4338 31.581 15.931 31.3386 15.544 30.9568C15.1571 30.575 14.908 30.0754 14.836 29.5366C14.6848 28.6421 14.603 27.7308 14.5389 26.83C14.4412 25.3679 14.4549 23.9005 14.5799 22.4405C14.6281 21.7559 14.7192 21.0749 14.8528 20.4017C14.9512 19.8487 15.2314 19.3444 15.6491 18.9689C16.0669 18.5935 16.598 18.3683 17.1583 18.3292C19.105 18.125 21.0613 18.0259 23.0187 18.0321C23.4901 18.0237 23.9636 18.0321 24.435 18.0321V17.9681M22.4917 28.008L27.6906 25.0138L22.4917 22.0206V28.008Z" fill="white"/>
</g>
<defs>
<clipPath id="clip0_7_57">
<rect width="48" height="48" fill="white"/>
</clipPath>
</defs>
</svg>
